<svg xmlns="http://www.w3.org/2000/svg" width="78.602" height="181.687" viewBox="0 0 78.602 181.687"><defs><style>.a{fill:#e8ca97;fill-rule:evenodd;}</style></defs><path class="a" d="M1861.368,349.166a63.33,63.33,0,0,0,3.766-19.512c.258-4.956-1.362-16.735-2.53-17.066-1.942-.549-5.465,12.124-5.715,16.484-1.125,19.5,3.565,22.182,3.565,22.182l0-.006c.545.914,1.184,1.957,1.907,3.088a60.319,60.319,0,0,0-18.1-6.927c-4.989-1.1-17.123-1.028-17.6.328-.794,2.26,11.6,8.542,15.989,9.545,13.989,3.194,19.674,1.446,21.786.181,3.884,5.637,9.119,12,14.054,14.005.693.281,3.455-.031,6.717-.575C1874.041,366.8,1864.7,354.144,1861.368,349.166Z" transform="translate(-1806.607 -189.886)"/><path class="a" d="M1805.37,304.211c15.733,11.816,21.439,8.3,21.439,8.3s-3.384-8.217-14.911-16.734c-4.017-2.973-15.2-7.672-16.338-6.616C1793.674,290.927,1801.853,301.566,1805.37,304.211Z" transform="translate(-1792.261 -179.104)"/><path class="a" d="M1816.66,269.672s-1.835-8.694-11.624-19.164c-3.411-3.653-13.559-10.306-14.865-9.473-2.175,1.392,3.936,13.34,6.913,16.58C1810.41,272.092,1816.66,269.672,1816.66,269.672Z" transform="translate(-1789.713 -157.116)"/><path class="a" d="M1823.408,182.537s2.9-8.323.039-22.362c-1-4.9-6.112-15.9-7.633-15.884-2.537.025-3.515,13.365-2.672,17.682C1816.926,181.273,1823.408,182.537,1823.408,182.537Z" transform="translate(-1800.3 -112.873)"/><path class="a" d="M1816.388,228.629s.632-8.863-5.893-21.625c-2.272-4.452-10.194-13.643-11.678-13.2-2.475.739.107,13.907,2.077,17.843C1809.713,229.233,1816.388,228.629,1816.388,228.629Z" transform="translate(-1793.414 -135.525)"/><path class="a" d="M1841,352.056s-5.407-7.43-18.567-13.854c-4.591-2.243-16.4-5.016-17.186-3.809-1.3,2.01,9.275,11.024,13.305,13.029C1836.565,356.376,1841,352.056,1841,352.056Z" transform="translate(-1796.77 -199.739)"/><path class="a" d="M1865.046,319.923s5.479-6.229,8.638-19.606c1.1-4.664,1.332-16.21.134-16.759-2-.919-7.9,10.427-8.9,14.525C1860.456,316.418,1865.046,319.923,1865.046,319.923Z" transform="translate(-1823.238 -176.584)"/><path class="a" d="M1849.4,285.892s5.927-5.8,10.076-18.908c1.45-4.569,2.537-16.065,1.384-16.7-1.921-1.066-8.652,9.808-9.957,13.821C1845.088,282.054,1849.4,285.892,1849.4,285.892Z" transform="translate(-1816.325 -161.347)"/><path class="a" d="M1853.58,190.423c3.187-3.581,8.868-13.634,8.075-14.685-1.32-1.757-11.9,5.427-14.728,8.558-12.633,14.018-10.258,19.282-10.258,19.282S1844.447,200.7,1853.58,190.423Z" transform="translate(-1811.121 -127.14)"/><path class="a" d="M1872.2,148.694c3.581-2.765,10.6-11.1,10.052-12.212-.917-1.86-11.984,2.957-15.154,5.368-14.163,10.8-12.878,16.094-12.878,16.094S1861.938,156.629,1872.2,148.694Z" transform="translate(-1819.221 -109.109)"/><path class="a" d="M1878.445,117.558s7.956-1.849,18.151-10.751c3.557-3.1,10.354-12.217,9.709-13.343-1.07-1.879-12.3,3.825-15.448,6.533C1876.778,112.122,1878.445,117.558,1878.445,117.558Z" transform="translate(-1830.293 -89.442)"/><path class="a" d="M1852.547,228.829c2.668-3.982,6.925-14.717,6-15.649-1.547-1.56-11.047,7-13.422,10.487-10.6,15.611-7.531,20.5-7.531,20.5S1844.9,240.253,1852.547,228.829Z" transform="translate(-1811.435 -144.314)"/><path class="a" d="M1839.869,151.03s4.3-7.091,5.072-20.816c.271-4.786-1.526-16.192-2.8-16.523-2.126-.556-5.949,11.647-6.219,15.858C1834.736,148.383,1839.869,151.03,1839.869,151.03Z" transform="translate(-1810.779 -98.861)"/><path class="a" d="M1860.958,118.364s5.5-5.106,9.564-16.858c1.42-4.1,2.678-14.468,1.65-15.07-1.712-1.01-8.058,8.663-9.334,12.26C1857.147,114.79,1860.958,118.364,1860.958,118.364Z" transform="translate(-1821.746 -86.362)"/></svg>