<svg xmlns="http://www.w3.org/2000/svg" xmlns:xlink="http://www.w3.org/1999/xlink" width="78.602" height="181.687" viewBox="0 0 78.602 181.687"><defs><style>.a{fill-rule:evenodd;fill:url(#a);}</style><linearGradient id="a" x1="0.5" x2="0.5" y2="1" gradientUnits="objectBoundingBox"><stop offset="0" stop-color="#d0ac6d"/><stop offset="1" stop-color="#f4daad"/></linearGradient></defs><path class="a" d="M164.5,295.779c-11.528,8.518-14.911,16.734-14.911,16.734s5.706,3.514,21.439-8.3c3.517-2.646,11.7-13.285,9.81-15.049C179.7,288.106,168.516,292.806,164.5,295.779Z" transform="translate(-105.533 -179.104)"/><path class="a" d="M175.226,250.508c-9.789,10.469-11.624,19.164-11.624,19.164s6.25,2.42,19.575-12.057c2.978-3.24,9.089-15.188,6.913-16.58C188.785,240.2,178.637,246.856,175.226,250.508Z" transform="translate(-111.947 -157.116)"/><path class="a" d="M179.848,161.974c.843-4.317-.135-17.657-2.672-17.682-1.521-.012-6.638,10.989-7.633,15.884-2.864,14.038.039,22.362.039,22.362S176.063,181.273,179.848,161.974Z" transform="translate(-114.088 -112.873)"/><path class="a" d="M170.914,228.629s6.675.6,15.495-16.984c1.97-3.936,4.551-17.1,2.077-17.843-1.484-.441-9.407,8.751-11.678,13.2C170.282,219.766,170.914,228.629,170.914,228.629Z" transform="translate(-115.286 -135.525)"/><path class="a" d="M109.305,347.409a60.308,60.308,0,0,0-18.1,6.927c.723-1.131,1.362-2.175,1.907-3.089l0,.006s4.69-2.68,3.565-22.182c-.25-4.36-3.774-17.034-5.715-16.484-1.168.331-2.788,12.11-2.53,17.066A63.33,63.33,0,0,0,92.2,349.166c-3.336,4.978-12.674,17.635-23.841,21.727,3.262.543,6.023.856,6.716.575,4.935-2,10.17-8.368,14.054-14.005,2.112,1.266,7.8,3.014,21.786-.181,4.387-1,16.783-7.285,15.989-9.545C126.428,346.381,114.294,346.306,109.305,347.409Z" transform="translate(-68.359 -189.886)"/><path class="a" d="M150.309,338.2c-13.16,6.424-18.567,13.854-18.567,13.854s4.431,4.32,22.448-4.634c4.03-2,14.607-11.018,13.3-13.029C166.714,333.186,154.9,335.959,150.309,338.2Z" transform="translate(-97.366 -199.739)"/><path class="a" d="M119.484,300.316c3.16,13.378,8.638,19.606,8.638,19.606s4.59-3.5.126-21.84c-1-4.1-6.9-15.444-8.9-14.525C118.152,284.106,118.379,295.652,119.484,300.316Z" transform="translate(-91.328 -176.584)"/><path class="a" d="M140.718,264.1c-1.305-4.012-8.036-14.886-9.957-13.821-1.154.636-.066,12.133,1.384,16.7,4.148,13.1,10.076,18.908,10.076,18.908S146.536,282.054,140.718,264.1Z" transform="translate(-96.696 -161.347)"/><path class="a" d="M145.035,203.577s2.375-5.264-10.258-19.282c-2.828-3.131-13.408-10.315-14.728-8.558-.793,1.051,4.888,11.1,8.075,14.685C137.256,200.7,145.035,203.577,145.035,203.577Z" transform="translate(-91.98 -127.14)"/><path class="a" d="M112.2,141.85c-3.17-2.41-14.236-7.227-15.153-5.368-.553,1.113,6.471,9.447,10.052,12.212,10.263,7.935,17.98,9.25,17.98,9.25S126.359,152.648,112.2,141.85Z" transform="translate(-81.472 -109.109)"/><path class="a" d="M82.807,106.808c10.2,8.9,18.151,10.751,18.151,10.751s1.667-5.437-12.412-17.561C85.395,97.29,74.168,91.585,73.1,93.465,72.453,94.59,79.25,103.705,82.807,106.808Z" transform="translate(-70.508 -89.442)"/><path class="a" d="M139.74,223.667c-2.374-3.487-11.875-12.048-13.422-10.487-.93.933,3.327,11.668,6,15.649,7.645,11.424,14.958,15.339,14.958,15.339S150.343,239.278,139.74,223.667Z" transform="translate(-94.824 -144.314)"/><path class="a" d="M155.347,151.03s5.132-2.647,3.947-21.481c-.27-4.21-4.093-16.414-6.219-15.858-1.275.33-3.072,11.737-2.8,16.523C151.044,143.939,155.347,151.03,155.347,151.03Z" transform="translate(-105.835 -98.861)"/><path class="a" d="M131.208,118.364s3.811-3.574-1.88-19.669c-1.276-3.6-7.622-13.27-9.334-12.26-1.028.6.23,10.973,1.65,15.07C125.709,113.257,131.208,118.364,131.208,118.364Z" transform="translate(-91.818 -86.362)"/></svg>