<svg xmlns="http://www.w3.org/2000/svg" width="91.655" height="91.309" viewBox="0 0 91.655 91.309"><g transform="translate(418.187 354.524)"><path d="M-400.859-289.579A34.884,34.884,0,0,0-353.244-302.2a34.894,34.894,0,0,0-12.611-47.626A34.9,34.9,0,0,0-413.486-337.2a34.894,34.894,0,0,0,12.628,47.621Zm3.936-6.775a26.936,26.936,0,0,1-9.779-36.9,26.936,26.936,0,0,1,36.9-9.779,26.926,26.926,0,0,1,9.768,36.9,26.926,26.926,0,0,1-36.893,9.785Zm0,0"/><path d="M-123.275-175.748c3.064,1.35,4.888-2.447,4.617-6.6a22.608,22.608,0,0,0-10.773-17.8A22.669,22.669,0,0,0-152-200.736c-3.392,1.958-3.113,4.788-1.883,6.328s4.408,1.015,6.912-.066a14.736,14.736,0,0,1,13.449,1.005,14.083,14.083,0,0,1,7.016,11.266c.1,3.021.167,5.1,3.232,6.455Zm0,0" transform="translate(-242.146 -138.842)"/><path d="M318.953,370.193a5.774,5.774,0,1,1-8.167,8.166l-2.914-2.914-14.664-14.663-6.252-6.252a3.408,3.408,0,0,1,0-4.829l3.338-3.339a3.406,3.406,0,0,1,4.827,0l6.252,6.253,14.663,14.663Zm0,0" transform="translate(-647.182 -643.269)"/></g></svg>