<svg xmlns="http://www.w3.org/2000/svg" xmlns:xlink="http://www.w3.org/1999/xlink" width="25.043" height="27.073" viewBox="0 0 25.043 27.073"><defs><style>.a{fill:#656565;}.b{clip-path:url(#a);}</style><clipPath id="a"><rect class="a" width="25.043" height="27.073"/></clipPath></defs><g class="b"><path class="a" d="M22.347,38.387a2.7,2.7,0,0,0,2.7-2.7V16.162a2.7,2.7,0,0,0-2.7-2.7H2.7a2.7,2.7,0,0,0-2.7,2.7v19.53a2.7,2.7,0,0,0,2.7,2.7Zm-21.228-2.7V16.162A1.578,1.578,0,0,1,2.7,14.586H22.347a1.578,1.578,0,0,1,1.577,1.577v19.53a1.578,1.578,0,0,1-1.577,1.577H2.7a1.579,1.579,0,0,1-1.577-1.577" transform="translate(0 -11.315)"/><path class="a" d="M43.124,4.986V.559a.559.559,0,1,0-1.119,0V4.986a.559.559,0,1,0,1.119,0" transform="translate(-35.292)"/><path class="a" d="M109.568,4.986V.559a.559.559,0,0,0-1.119,0V4.986a.559.559,0,0,0,1.119,0" transform="translate(-91.117)"/><rect class="a" width="23.802" height="1.119" transform="translate(0.559 7.584)"/><path class="a" d="M57.26,103.084a.559.559,0,1,0,0-1.119H48.735a.559.559,0,1,0,0,1.119Z" transform="translate(-40.476 -85.669)"/><path class="a" d="M75.965,84.38V75.855a.559.559,0,0,0-1.119,0V84.38a.559.559,0,0,0,1.119,0" transform="translate(-62.884 -63.262)"/></g></svg>