<svg xmlns="http://www.w3.org/2000/svg" width="110" height="110" viewBox="0 0 110 110"><defs><style>.a,.b,.f{fill:none;}.a,.b{stroke:#fff;stroke-miterlimit:10;}.a{stroke-width:1.625px;}.b{stroke-linecap:round;stroke-width:0.898px;}.c,.d{fill:#fff;}.c{font-size:17px;font-family:Montserrat-Bold, Montserrat;font-weight:700;}.e{stroke:none;}</style></defs><g transform="translate(-3 -3)"><g class="a" transform="translate(3 3)"><circle class="e" cx="55" cy="55" r="55"/><circle class="f" cx="55" cy="55" r="54.188"/></g><g transform="translate(29.105 29.603)"><path class="b" d="M71.808,32.085A28.745,28.745,0,0,0,26.123,55.3" transform="translate(-26.123 -26.563)"/><path class="b" d="M38.388,78.861A28.736,28.736,0,0,0,83.6,56.015" transform="translate(-26.123 -26.563)"/></g><text class="c" transform="translate(22.66 80.072) rotate(-25.271)"><tspan x="0" y="0">ISO 9001 </tspan></text><g transform="translate(50.98 70.353)"><path class="d" d="M92.744,66.583a3.327,3.327,0,0,1,1.92,4.446,3.242,3.242,0,0,1-1.839,1.977l-.339-.779a2.439,2.439,0,0,0,1.382-1.457,2.527,2.527,0,1,0-4.729-1.781A2.446,2.446,0,0,0,89.225,71l-.768.363a3.258,3.258,0,0,1-.084-2.711A3.323,3.323,0,0,1,92.744,66.583Z" transform="translate(-47.98 -66.353)"/><path class="d" d="M85.881,78.293l2.107-3.445a1.685,1.685,0,0,0-2.183.778,1.858,1.858,0,0,0-.238,1.54l-.756.121a2.713,2.713,0,0,1,3.9-3.052,2.439,2.439,0,0,1,.861,3.455,2.4,2.4,0,0,1-3.472.761A2.482,2.482,0,0,1,85.881,78.293Zm2.66-3.107L86.875,77.91a1.607,1.607,0,0,0,1.666-2.724Z" transform="translate(-47.98 -66.353)"/><path class="d" d="M84.13,84.735l-.65-.587A1.183,1.183,0,0,0,83.626,84a1.486,1.486,0,0,0-.191-2.291L81.6,80.046l.6-.668,3.69,3.342-.579.64-.621-.561A1.9,1.9,0,0,1,84.13,84.735Z" transform="translate(-47.98 -66.353)"/><path class="d" d="M76.195,85.209a1.7,1.7,0,0,1,.657-.936,1.422,1.422,0,0,1,2.2.287l1.654,2.176.673-.511.45.59-.673.512.66.868-.718.546-.661-.868-1.136.865-.45-.592,1.137-.864-1.633-2.147a.734.734,0,0,0-1.127-.194,1.143,1.143,0,0,0-.418.615Z" transform="translate(-47.98 -66.353)"/><path class="d" d="M75.979,90.764l-.8.42-2.315-4.412.8-.419Zm.859,1.291a.6.6,0,0,1-.266.808.586.586,0,0,1-.807-.223.611.611,0,0,1,1.073-.585Z" transform="translate(-47.98 -66.353)"/><path class="d" d="M70.59,93.571l-.139-.408-1.369.47-.241-.7,1.35-.464-1.377-4.008.853-.292,1.378,4.007.8-.275.242.7-.8.274.144.417A1.5,1.5,0,0,1,70.4,95.347a1.673,1.673,0,0,1-1.055.054l.035-.737a1.167,1.167,0,0,0,.734,0A.75.75,0,0,0,70.59,93.571Z" transform="translate(-47.98 -66.353)"/><path class="d" d="M65.611,94.47l-.879.194L63.66,89.8l.881-.194Zm.489,1.47a.594.594,0,0,1-.47.71.583.583,0,0,1-.719-.428A.611.611,0,0,1,66.1,95.94Z" transform="translate(-47.98 -66.353)"/><path class="d" d="M56.1,93.21l4.012-.51a1.69,1.69,0,0,0-1.976-1.218,1.867,1.867,0,0,0-1.351.778l-.568-.516a2.717,2.717,0,0,1,4.828,1.142A2.44,2.44,0,0,1,58.88,95.72a2.4,2.4,0,0,1-2.769-2.237C56.1,93.408,56.1,93.295,56.1,93.21Zm4.093.135-3.171.4a1.608,1.608,0,0,0,3.171-.4Z" transform="translate(-47.98 -66.353)"/><path class="d" d="M47.98,97.985l.256-6.965.865.032-.029.789a2.1,2.1,0,0,1,1.805-.779,2.541,2.541,0,0,1-.188,5.079,2.122,2.122,0,0,1-1.707-.864l-.1,2.742Zm1.057-4.444a1.679,1.679,0,1,0,1.736-1.694A1.638,1.638,0,0,0,49.037,93.541Z" transform="translate(-47.98 -66.353)"/></g><g transform="translate(17.574 15.197)"><path class="d" d="M16.614,42.7a3.325,3.325,0,0,1-1.724-4.525,3.243,3.243,0,0,1,1.923-1.9l.3.794a2.438,2.438,0,0,0-1.442,1.4A2.527,2.527,0,1,0,20.32,40.45a2.439,2.439,0,0,0,0-2.012l.784-.329a3.259,3.259,0,0,1-.034,2.711A3.323,3.323,0,0,1,16.614,42.7Z" transform="translate(-14.574 -13.197)"/><path class="d" d="M23.98,31.3l-2.254,3.35a1.684,1.684,0,0,0,2.214-.682,1.855,1.855,0,0,0,.3-1.528L25,32.349a2.713,2.713,0,0,1-4.032,2.879,2.44,2.44,0,0,1-.71-3.49,2.4,2.4,0,0,1,3.5-.609A2.68,2.68,0,0,1,23.98,31.3Zm-2.792,2.989,1.783-2.649a1.607,1.607,0,0,0-1.783,2.649Z" transform="translate(-14.574 -13.197)"/><path class="d" d="M26.009,24.936l.622.614a1.6,1.6,0,0,0-.059,2.437l1.764,1.743-.634.642-3.541-3.5.608-.615.594.588A1.9,1.9,0,0,1,26.009,24.936Z" transform="translate(-14.574 -13.197)"/><path class="d" d="M33.956,24.807a1.694,1.694,0,0,1-.7.907,1.423,1.423,0,0,1-2.188-.382l-1.558-2.246-.695.481-.423-.609.695-.482-.622-.9.74-.515.623.9L31,21.147l.423.61-1.172.814,1.537,2.216a.734.734,0,0,0,1.117.243,1.138,1.138,0,0,0,.445-.6Z" transform="translate(-14.574 -13.197)"/><path class="d" d="M33.612,17.94a.594.594,0,0,1,.3-.8.583.583,0,0,1,.8.258.611.611,0,0,1-1.1.537Zm.8,1.327.816-.384,2.122,4.508-.817.384Z" transform="translate(-14.574 -13.197)"/><path class="d" d="M39.92,16.7l.122.413L41.43,16.7l.211.712-1.37.405,1.2,4.063-.866.256-1.2-4.063-.811.239-.21-.712.811-.24-.126-.423a1.5,1.5,0,0,1,1.121-2.006,1.673,1.673,0,0,1,1.056-.009l-.066.735a1.174,1.174,0,0,0-.734-.028A.75.75,0,0,0,39.92,16.7Z" transform="translate(-14.574 -13.197)"/><path class="d" d="M44.51,14.525a.594.594,0,0,1,.5-.689.588.588,0,1,1-.5.689Zm.424,1.49.887-.156.86,4.906-.889.155Z" transform="translate(-14.574 -13.197)"/><path class="d" d="M54.387,17.688l-4.032.334a1.69,1.69,0,0,0,1.921,1.3,1.866,1.866,0,0,0,1.384-.719l.546.539A2.716,2.716,0,0,1,49.432,17.8a2.44,2.44,0,0,1,2.282-2.737,2.4,2.4,0,0,1,2.668,2.355A2.7,2.7,0,0,1,54.387,17.688ZM50.3,17.376l3.186-.265a1.608,1.608,0,0,0-3.186.265Z" transform="translate(-14.574 -13.197)"/><path class="d" d="M62.7,13.27l-.558,6.947-.863-.07.064-.786a2.1,2.1,0,0,1-1.838.7,2.424,2.424,0,0,1-2.3-2.74A2.416,2.416,0,0,1,59.913,15a2.111,2.111,0,0,1,1.667.936L61.8,13.2Zm-1.248,4.394a1.679,1.679,0,1,0-3.344-.268,1.679,1.679,0,1,0,3.344.268Z" transform="translate(-14.574 -13.197)"/></g></g></svg>