<svg xmlns="http://www.w3.org/2000/svg" width="65.119" height="65.119" viewBox="0 0 65.119 65.119"><defs><style>.a,.b,.c,.d,.e,.f,.g,.h,.i,.j,.k,.l{fill:#c3c3c3;}.b{opacity:0.083;}.c{opacity:0.167;}.d{opacity:0.25;}.e{opacity:0.333;}.f{opacity:0.417;}.g{opacity:0.5;}.h{opacity:0.583;}.i{opacity:0.667;}.j{opacity:0.75;}.k{opacity:0.833;}.l{opacity:0.917;}</style></defs><g transform="translate(-136.292 -124.602)"><path class="a" d="M230.309,140.592h0a2.9,2.9,0,0,0,2.906-2.9l.006-10.181a2.9,2.9,0,0,0-2.9-2.906h0a2.9,2.9,0,0,0-2.907,2.9l-.006,10.181A2.9,2.9,0,0,0,230.309,140.592Z" transform="translate(-61.448 0)"/><path class="b" d="M258.756,151.063h0A2.9,2.9,0,0,0,262.724,150l5.1-8.814a2.9,2.9,0,0,0-1.061-3.969h0a2.9,2.9,0,0,0-3.968,1.061l-5.1,8.814A2.9,2.9,0,0,0,258.756,151.063Z" transform="translate(-81.612 -8.246)"/><path class="c" d="M279.572,179.627h0a2.9,2.9,0,0,0,3.967,1.065l8.82-5.085a2.9,2.9,0,0,0,1.065-3.967h0a2.9,2.9,0,0,0-3.967-1.065l-8.821,5.085A2.9,2.9,0,0,0,279.572,179.627Z" transform="translate(-96.367 -30.742)"/><path class="d" d="M287.18,218.619h0a2.9,2.9,0,0,0,2.9,2.906l10.181.006a2.9,2.9,0,0,0,2.906-2.9h0a2.9,2.9,0,0,0-2.9-2.906l-10.182-.006A2.9,2.9,0,0,0,287.18,218.619Z" transform="translate(-101.76 -61.448)"/><path class="e" d="M279.539,247.065h0a2.905,2.905,0,0,0,1.061,3.969l8.814,5.1a2.9,2.9,0,0,0,3.968-1.061h0a2.9,2.9,0,0,0-1.061-3.968l-8.814-5.1A2.9,2.9,0,0,0,279.539,247.065Z" transform="translate(-96.343 -81.611)"/><path class="f" d="M258.7,267.882h0a2.9,2.9,0,0,0-1.065,3.967l5.086,8.82a2.9,2.9,0,0,0,3.967,1.066h0a2.9,2.9,0,0,0,1.065-3.967l-5.085-8.82A2.9,2.9,0,0,0,258.7,267.882Z" transform="translate(-81.571 -96.367)"/><path class="g" d="M230.23,275.489h0a2.9,2.9,0,0,0-2.906,2.9l-.006,10.182a2.9,2.9,0,0,0,2.9,2.906h0a2.9,2.9,0,0,0,2.906-2.9l.006-10.181A2.905,2.905,0,0,0,230.23,275.489Z" transform="translate(-61.389 -101.759)"/><path class="h" d="M191.239,267.848h0a2.9,2.9,0,0,0-3.968,1.061l-5.1,8.814a2.9,2.9,0,0,0,1.061,3.968h0a2.9,2.9,0,0,0,3.968-1.061l5.1-8.814A2.9,2.9,0,0,0,191.239,267.848Z" transform="translate(-30.681 -96.343)"/><path class="i" d="M162.709,247.008h0a2.9,2.9,0,0,0-3.967-1.065l-8.82,5.085A2.9,2.9,0,0,0,148.856,255h0a2.9,2.9,0,0,0,3.967,1.066l8.82-5.086A2.9,2.9,0,0,0,162.709,247.008Z" transform="translate(-8.211 -81.571)"/><path class="j" d="M152.283,218.54h0a2.9,2.9,0,0,0-2.9-2.906l-10.181-.006a2.9,2.9,0,0,0-2.907,2.9h0a2.9,2.9,0,0,0,2.9,2.906l10.182.006A2.9,2.9,0,0,0,152.283,218.54Z" transform="translate(0 -61.389)"/><path class="k" d="M162.754,179.548h0a2.9,2.9,0,0,0-1.061-3.968l-8.814-5.1a2.9,2.9,0,0,0-3.968,1.061h0a2.9,2.9,0,0,0,1.061,3.969l8.814,5.1A2.9,2.9,0,0,0,162.754,179.548Z" transform="translate(-8.246 -30.68)"/><path class="l" d="M191.318,151.018h0a2.9,2.9,0,0,0,1.066-3.967l-5.086-8.82a2.9,2.9,0,0,0-3.967-1.066h0a2.9,2.9,0,0,0-1.066,3.967l5.086,8.82A2.9,2.9,0,0,0,191.318,151.018Z" transform="translate(-30.742 -8.21)"/></g></svg>