<svg xmlns="http://www.w3.org/2000/svg" xmlns:xlink="http://www.w3.org/1999/xlink" width="993" height="279.288" viewBox="0 0 993 279.288"><defs><style>.a{fill:#2e7ea0;}.b{fill:#2891bc;}.c{clip-path:url(#a);}</style><clipPath id="a"><path class="a" d="M493.774,549.744H924.929s20.686,1.242,21.144-22.347,0-233.076,0-233.076S833.4,281.238,774.459,355.846s-8.853,94.116-185.521,114.7-216.562,79.194-216.562,79.194Z" transform="translate(-372.376 -270.468)"/></clipPath></defs><g transform="translate(0 -65)"><rect class="b" width="993" height="279" rx="24" transform="translate(0 65)"/><g class="c" transform="translate(418.244 65)"><path class="a" d="M27,0H861a27,27,0,0,1,27,27V494a27,27,0,0,1-27,27H27A27,27,0,0,1,0,494V27A27,27,0,0,1,27,0Z" transform="translate(-306.243 -243)"/></g></g></svg>