<svg xmlns="http://www.w3.org/2000/svg" width="43.611" height="39.25" viewBox="0 0 43.611 39.25"><defs><style>.a{fill:#2897ff;}</style></defs><path class="a" d="M25.805,14.722V6H4V45.25H47.611V14.722ZM12.722,40.889H8.361V36.527h4.361Zm0-8.722H8.361V27.805h4.361Zm0-8.722H8.361V19.083h4.361Zm0-8.722H8.361V10.361h4.361Zm8.722,26.166H17.083V36.527h4.361Zm0-8.722H17.083V27.805h4.361Zm0-8.722H17.083V19.083h4.361Zm0-8.722H17.083V10.361h4.361ZM43.25,40.889H25.805V36.527h4.361V32.166H25.805V27.805h4.361V23.444H25.805V19.083H43.25ZM38.889,23.444H34.527v4.361h4.361Zm0,8.722H34.527v4.361h4.361Z" transform="translate(-4 -6)"/></svg>