<svg xmlns="http://www.w3.org/2000/svg" width="46.932" height="49.395" viewBox="0 0 46.932 49.395"><defs><style>.a{fill:#fff;}</style></defs><g transform="translate(-755.102 -1911.87)"><path class="a" d="M99.326,241.312h0l-.129-.069L94.975,239h0l-1.85-.984L87.5,235.019h0l-3.258-1.733h0l-5.148-2.739,1.416,5.087h0l.33,1.184,1.871,6.718h0l.765,2.746,2.455,8.818,2.516-3.679h0L90.5,248.4l6.088,7.579,3.56-2.86-5.038-6.272h0l-1.049-1.306,7.525-3.028Z" transform="translate(699.824 1705.283)"/><path class="a" d="M84.838,256.289c-.894,0-2.335-1.617-3.539-5.231a36.726,36.726,0,0,1-1.386-5.928h5.157l-.937-3.364H79.505c-.163-1.793-.247-3.665-.247-5.58s.085-3.786.247-5.579H90.171c.161,1.793.246,3.664.246,5.579,0,.2,0,.388-.007.583l3.326,1.77c.027-.784.044-1.568.044-2.353,0-1.872-.079-3.748-.237-5.579h10.608a20.158,20.158,0,0,1,0,11.159H99.8l6.651,3.539c.165-.391.324-.785.469-1.187a1.4,1.4,0,0,0,.074-.211,23.467,23.467,0,0,0,0-15.441,1.4,1.4,0,0,0-.074-.211,23.467,23.467,0,0,0-44.172,0,1.572,1.572,0,0,0-.075.211,23.49,23.49,0,0,0,0,15.441,1.781,1.781,0,0,0,.075.211,23.46,23.46,0,0,0,26.259,15.16L87.4,253.486C86.456,255.4,85.5,256.289,84.838,256.289Zm18-29.046H93.159a32.3,32.3,0,0,0-3.064-10.462A20.2,20.2,0,0,1,102.838,227.242ZM81.3,221.314c1.2-3.614,2.645-5.231,3.539-5.231s2.335,1.617,3.539,5.231a36.726,36.726,0,0,1,1.386,5.928H79.914A36.692,36.692,0,0,1,81.3,221.314Zm-1.718-4.533a32.337,32.337,0,0,0-3.066,10.462H66.838A20.2,20.2,0,0,1,79.582,216.781Zm-14.847,19.4a20.021,20.021,0,0,1,.789-5.579H76.132c-.159,1.831-.238,3.707-.238,5.579s.079,3.75.238,5.58H65.524A20.024,20.024,0,0,1,64.735,236.185Zm2.1,8.944h9.678a32.337,32.337,0,0,0,3.066,10.462A20.2,20.2,0,0,1,66.838,245.129Z" transform="translate(693.729 1699.151)"/></g></svg>