<svg xmlns="http://www.w3.org/2000/svg" width="61.473" height="49.764" viewBox="0 0 61.473 49.764"><defs><style>.a{fill-rule:evenodd;}</style></defs><g transform="translate(-114.238 -761.527)"><path class="a" d="M312.61,766.793a2.633,2.633,0,1,0-2.634-2.633A2.634,2.634,0,0,0,312.61,766.793Z" transform="translate(-169.146)"/><path class="a" d="M299.706,808.2c-.049-.767.039-.813-.424-1.312s-2.995-.89-2.995-.89h-3.3s-2.653.39-3.115.89-.385.541-.422,1.309c-.053,1.078-.363,3.785-.363,5.334s2.246,5.188,2.246,5.188l1.726,12h3.07l1.7-12s2.207-4.272,2.207-5.3S299.769,809.2,299.706,808.2Z" transform="translate(-151.094 -38.431)"/><path class="a" d="M507.938,914.3a4.28,4.28,0,0,0-4.285,4.276,5.036,5.036,0,0,0,1.278,3.27c.829,1.046,3.006,3.37,3.006,3.37s1.9-2.213,2.833-3.37a5.432,5.432,0,0,0,1.451-3.27A4.28,4.28,0,0,0,507.938,914.3Zm0,6.47a2.1,2.1,0,1,1,2.1-2.1A2.1,2.1,0,0,1,507.937,920.769Z" transform="translate(-336.511 -132.017)"/><path class="a" d="M119.571,954.472a5.328,5.328,0,0,0-5.333,5.322,6.268,6.268,0,0,0,1.591,4.07c1.032,1.3,3.742,4.195,3.742,4.195s2.371-2.754,3.527-4.195a6.76,6.76,0,0,0,1.806-4.07A5.327,5.327,0,0,0,119.571,954.472Zm0,8.053a2.619,2.619,0,1,1,2.619-2.619A2.619,2.619,0,0,1,119.571,962.525Z" transform="translate(0 -166.732)"/><path class="a" d="M368.139,972.9a8.253,8.253,0,0,0-8.262,8.245,9.711,9.711,0,0,0,2.465,6.3c1.6,2.017,5.8,6.5,5.8,6.5s3.673-4.266,5.464-6.5,2.8-4.306,2.8-6.3A8.253,8.253,0,0,0,368.139,972.9Zm0,12.476a4.057,4.057,0,1,1,4.057-4.057A4.057,4.057,0,0,1,368.139,985.38Z" transform="translate(-212.268 -182.66)"/><path class="a" d="M237.124,901.951s.992-1.152,1.476-1.755a2.829,2.829,0,0,0,.756-1.7,2.231,2.231,0,0,0-4.462,0,2.623,2.623,0,0,0,.666,1.7C235.991,900.741,237.124,901.951,237.124,901.951Zm0-4.506a1.1,1.1,0,1,1-1.1,1.1A1.1,1.1,0,0,1,237.124,897.445Z" transform="translate(-104.263 -116.435)"/><path class="a" d="M397.226,901.951s.992-1.152,1.476-1.755a2.828,2.828,0,0,0,.755-1.7,2.231,2.231,0,0,0-4.462,0,2.623,2.623,0,0,0,.666,1.7C396.093,900.741,397.226,901.951,397.226,901.951Zm0-4.506a1.1,1.1,0,1,1-1.1,1.1A1.1,1.1,0,0,1,397.226,897.445Z" transform="translate(-242.615 -116.435)"/><path class="a" d="M358.634,946.974l-.5,1.3c11.234,0,16.63,2.028,16.63,4.243a1.423,1.423,0,0,1-.1.516,9.1,9.1,0,0,1,1.7,4.177c2-1.034,3.141-2.223,3.141-3.488C379.5,949.355,371.551,946.974,358.634,946.974Z" transform="translate(-210.759 -160.253)"/><path class="a" d="M208.582,948.087l-.468-1.455a48.4,48.4,0,0,0-13.97,1.853,6.86,6.86,0,0,1,.9,1.626A50.156,50.156,0,0,1,208.582,948.087Z" transform="translate(-69.05 -159.958)"/><path class="a" d="M208.05,1010.255q-1.29.042-2.625.042c-7.418,0-13.916-1-17.526-2.5a12.546,12.546,0,0,1-1.813,2.9l-.146.181c4.636,1.6,11.643,2.621,19.485,2.621q1.477,0,2.911-.048a9.422,9.422,0,0,1-.318-2.469C208.017,1010.742,208.03,1010.5,208.05,1010.255Z" transform="translate(-61.961 -212.816)"/></g></svg>