<svg xmlns="http://www.w3.org/2000/svg" width="18.045" height="25.008" viewBox="0 0 18.045 25.008"><defs><style>.a{fill:none;stroke:#2897ff;stroke-miterlimit:10;stroke-width:2px;}</style></defs><path class="a" d="M463.152,662.5c.02.036.042.069.062.1s.038.07.059.106c3.713,6.481,10.125,10.294,11.313,8.3l1.5-2.848a.851.851,0,0,0-.053-.816l-.016-.017c-.21-.409-.4-.423-1.5-1.147-.569-.428-1.175-.893-1.575-1.244a.947.947,0,0,0-1.262-.05l-.618.611a1.111,1.111,0,0,1-.8.318c-.889-.015-2.591-2.416-3.539-3.9-.268-.421-.481-.773-.6-.987s-.319-.576-.546-1.02c-.8-1.566-2.008-4.248-1.571-5.023a1.108,1.108,0,0,1,.677-.526l.84-.225a.946.946,0,0,0,.6-1.113c-.1-.524-.2-1.281-.276-1.988-.07-1.313.014-1.485-.233-1.872l-.007-.023a.846.846,0,0,0-.676-.458l-3.216-.146C459.389,648.559,459.441,656.023,463.152,662.5Z" transform="translate(-459.133 -647.542)"/></svg>