<svg xmlns="http://www.w3.org/2000/svg" width="41.318" height="41.318" viewBox="0 0 41.318 41.318"><defs><style>.a{fill:#2897ff;}</style></defs><path class="a" d="M24.659,8.907a5.423,5.423,0,1,1-5.423,5.423,5.422,5.422,0,0,1,5.423-5.423m0,23.241c7.67,0,15.752,3.77,15.752,5.423v2.841H8.907V37.571c0-1.653,8.083-5.423,15.752-5.423M24.659,4A10.329,10.329,0,1,0,34.988,14.329,10.327,10.327,0,0,0,24.659,4Zm0,23.241C17.764,27.241,4,30.7,4,37.571v7.747H45.318V37.571C45.318,30.7,31.554,27.241,24.659,27.241Z" transform="translate(-4 -4)"/></svg>