<svg xmlns="http://www.w3.org/2000/svg" xmlns:xlink="http://www.w3.org/1999/xlink" width="93.913" height="89.791" viewBox="0 0 93.913 89.791"><defs><style>.a{fill:#f7db7b;}.a,.b{fill-rule:evenodd;}.b{fill:url(#a);}</style><linearGradient id="a" x1="0.5" x2="1.215" y2="0.5" gradientUnits="objectBoundingBox"><stop offset="0" stop-color="#fff08e"/><stop offset="1" stop-color="#dd9c44"/></linearGradient></defs><g transform="translate(-393.946 -200.874)"><path class="a" d="M435.316,203.08l8.909,27.6,28.983-.045a4.627,4.627,0,0,1,2.724,8.382L452.426,256l9.014,27.568a4.629,4.629,0,0,1-7.132,5.162l-23.43-17.08L407.462,288.72a4.583,4.583,0,0,1-5.463,0,4.525,4.525,0,0,1-1.67-5.177l9.029-27.553-23.49-17a4.631,4.631,0,0,1,2.724-8.382l29,.06L426.5,203.08a4.635,4.635,0,0,1,8.818,0Z" transform="translate(10 1.014)"/><path class="b" d="M391.5,203.094l8.909,27.6,28.983-.045a4.627,4.627,0,0,1,2.724,8.382l-23.505,16.989,9.014,27.568a4.629,4.629,0,0,1-7.132,5.162l-23.43-17.095.03-71.78A4.592,4.592,0,0,1,391.5,203.094Z" transform="translate(53.812 1)"/></g></svg>