<svg xmlns="http://www.w3.org/2000/svg" width="121.618" height="101.051" viewBox="0 0 121.618 101.051"><defs><style>.a{fill:#2b2b2b;fill-rule:evenodd;}</style></defs><g transform="translate(-392.594 -327.67)"><path class="a" d="M472.608,395.68a34.447,34.447,0,1,1-34.447,34.447,34.447,34.447,0,0,1,34.447-34.447m0-7.158a41.6,41.6,0,1,1-21.549,77.2H432.335a3.952,3.952,0,0,1,0-7.9h9.225A41.726,41.726,0,0,1,436,449.9H410.862a3.952,3.952,0,1,1,0-7.9h21.864a41.386,41.386,0,0,1-1.535-7.917H418.168a3.952,3.952,0,0,1,0-7.9h13.02a41.405,41.405,0,0,1,1.533-7.917H408.028a3.952,3.952,0,1,1,0-7.9H436a41.74,41.74,0,0,1,5.564-7.917H396.546a3.952,3.952,0,0,1,0-7.9h54.51A41.4,41.4,0,0,1,472.608,388.522Z" transform="translate(0 -43.011)"/><path class="a" d="M604.029,443.454a25.5,25.5,0,1,0,25.5,25.5A25.5,25.5,0,0,0,604.029,443.454Zm8.635,22.887-7.713,6.511-3.838-6.648,9.5-3.424,10.953-3.95Z" transform="translate(-131.421 -81.837)"/><path class="a" d="M641.627,343.464V337H645.9a2.991,2.991,0,0,0,2.982-2.982v-3.362a2.991,2.991,0,0,0-2.982-2.982H628.3a2.991,2.991,0,0,0-2.982,2.982v3.362A2.991,2.991,0,0,0,628.3,337h4.271v6.468a42.224,42.224,0,0,1,9.053,0" transform="translate(-164.493)"/></g></svg>