<svg xmlns="http://www.w3.org/2000/svg" width="169" height="169" viewBox="0 0 169 169"><defs><style>.a{fill:#9aa1ff;}.b{fill:#324a5e;}.c{fill:#2b3b4e;}.d{fill:#334a5e;}.e{fill:#ef720c;}</style></defs><g transform="translate(-75.165 -99.692)"><circle class="a" cx="84.5" cy="84.5" r="84.5" transform="translate(75.165 99.692)"/><g transform="translate(103.691 132.526)"><rect class="b" width="107.212" height="40.268" transform="translate(2.072 52.877)"/><rect class="c" width="107.212" height="15.279" transform="translate(2.072 47.787)"/><path class="b" d="M210.882,321.126v31.857a4.167,4.167,0,0,0,2.1,3.635c46.5,26.085,95.722,5.345,106.9-.029a4.151,4.151,0,0,0,2.349-3.754V321.126Z" transform="translate(-210.882 -306.991)"/><g transform="translate(31.884)"><path class="d" d="M409.716,268.211h-6.861v-7.273H368.987v7.273h-6.861v-7.478a6.664,6.664,0,0,1,6.656-6.656h34.277a6.664,6.664,0,0,1,6.657,6.656Z" transform="translate(-362.126 -254.077)"/></g><rect class="e" width="19.042" height="13.665" transform="translate(46.157 55.426)"/></g></g></svg>