<svg xmlns="http://www.w3.org/2000/svg" xmlns:xlink="http://www.w3.org/1999/xlink" width="153.916" height="77.945" viewBox="0 0 153.916 77.945"><defs><style>.a,.c,.d,.e,.f{fill-rule:evenodd;}.a{fill:url(#a);}.b{fill:#2c3e50;}.c{fill:#d2ae70;}.d{fill:#e0b169;}.e{fill:#e8cb65;}.f{fill:#eed3a3;}</style><linearGradient id="a" x1="0.5" x2="0.801" y2="0.71" gradientUnits="objectBoundingBox"><stop offset="0" stop-color="#fdec8a"/><stop offset="1" stop-color="#de9f47"/></linearGradient></defs><g transform="translate(-236.647 -543.112)"><path class="a" d="M322.2,544.584H238.968v41.9c0,2.68,18.635,4.841,41.623,4.841,22.974,0,41.608-2.161,41.608-4.841Z" transform="translate(33.015 20.934)"/><rect class="b" width="2.885" height="43.294" transform="translate(381.947 567.05)"/><path class="c" d="M250.781,545.783a4.8,4.8,0,1,1-4.811,4.8,4.805,4.805,0,0,1,4.811-4.8Zm-4.811,18.239v19.045h9.607V564.022a4.8,4.8,0,0,0-9.607,0Z" transform="translate(132.615 37.989)"/><path class="d" d="M313.6,543.112l76.961,22.405L313.6,587.924l-76.955-22.406Z" transform="translate(0)"/><path class="e" d="M248.914,548.837c4.248,0,7.7-1.02,7.7-2.253,0-1.249-3.456-2.238-7.7-2.238s-7.718.99-7.718,2.238C241.2,547.817,244.666,548.837,248.914,548.837Z" transform="translate(64.693 17.534)"/><path class="e" d="M313.6,587.924l-76.955-22.406L313.6,543.112Z" transform="translate(0)"/><path class="f" d="M248.914,548.837c-4.263,0-7.718-1.006-7.718-2.253s3.456-2.238,7.718-2.238Z" transform="translate(64.693 17.534)"/></g></svg>