<svg xmlns="http://www.w3.org/2000/svg" width="14.754" height="13.558" viewBox="0 0 14.754 13.558"><defs><style>.a{fill:none;stroke:#2897ff;stroke-linecap:round;stroke-linejoin:round;}</style></defs><g transform="translate(-600 -866)"><path class="a" d="M600.5,870.5v8.97a1.2,1.2,0,0,0,1.2,1.2h11.362a1.2,1.2,0,0,0,1.2-1.2V871.1a.6.6,0,0,0-.6-.6H601.7" transform="translate(0 -1.608)"/><line class="a" y1="3" transform="translate(600.5 867.5)"/><path class="a" d="M616.294,879.088h3.588V875.5h-3.588a1.794,1.794,0,0,0-1.794,1.794h0A1.794,1.794,0,0,0,616.294,879.088Z" transform="translate(-5.628 -3.618)"/><path class="a" d="M601.7,866.5a1.2,1.2,0,1,0,0,2.392"/><path class="a" d="M612.068,868.892V867.1a.6.6,0,0,0-.6-.6H602.5" transform="translate(-0.804)"/></g></svg>