<svg xmlns="http://www.w3.org/2000/svg" width="47.83" height="47.257" viewBox="0 0 47.83 47.257"><defs><style>.a{fill-rule:evenodd;}</style></defs><g transform="translate(-152.301 -119.136)"><path class="a" d="M184.759,383.676l-1.5,1.488c7.25.449,12.392,1.662,12.392,3.757,0,2.726-8.7,4.935-19.431,4.935s-19.431-2.21-19.431-4.935c0-2.137,5.352-3.356,12.835-3.783l-1.534-1.505c-9.205.951-15.785,3.469-15.785,6.428,0,3.774,10.707,6.833,23.915,6.833s23.915-3.059,23.915-6.833C200.131,387.146,193.747,384.659,184.759,383.676Z" transform="translate(0 -230.5)"/><path class="a" d="M236.584,157.755s6.74-7.828,10.025-11.922,5.134-7.9,5.134-11.568a15.159,15.159,0,0,0-30.318,0c0,3.722,1.149,7.312,4.523,11.568C228.882,149.534,236.584,157.755,236.584,157.755Zm0-30.616a7.444,7.444,0,1,1-7.444,7.444A7.444,7.444,0,0,1,236.584,127.139Z" transform="translate(-60.239)"/></g></svg>