<svg xmlns="http://www.w3.org/2000/svg" width="47.405" height="34.47" viewBox="0 0 47.405 34.47"><defs><style>.a{fill:#fff;}</style></defs><path class="a" d="M325.837,397.533c-1.025,3.08-2.973,4.693-5.695,4.822-2.543.121-4.5-1.312-5.852-4.2a1.268,1.268,0,0,0-.937-.594q-5.221-.063-10.444,0a1.248,1.248,0,0,0-.914.612c-1.267,2.816-3.326,4.31-5.872,4.18-2.708-.138-4.6-1.7-5.7-4.82-1.181,0-2.418.008-3.654,0-1.422-.011-1.782-.341-1.783-1.718q-.012-13.09,0-26.178c0-1.427.308-1.723,1.753-1.723,9.628,0,19.258.011,28.886-.019,1.238,0,1.716.5,1.681,1.688s-.008,2.388-.008,3.728c2.318,0,4.5.035,6.674-.017a2.01,2.01,0,0,1,1.918.989c1.943,2.884,3.954,5.724,5.887,8.616a3.462,3.462,0,0,1,.574,1.771c.052,3.7.032,7.393.023,11.091,0,1.4-.36,1.759-1.735,1.771C329.054,397.542,327.467,397.533,325.837,397.533ZM287.3,395.343c.708,0,1.27-.047,1.82.011a1.438,1.438,0,0,0,1.773-1.14,5.6,5.6,0,0,1,5.531-3.646,5.746,5.746,0,0,1,5.43,3.824c.245.657.491.976,1.242.968,3.394-.038,6.789-.008,10.183-.031.3,0,.8-.12.878-.316a9.026,9.026,0,0,0,.938-3c.081-6.875.043-13.75.039-20.625,0-.372-.046-.745-.07-1.12H287.3Zm30.2-10.108v5.686c4.579-.913,6.423.051,8.411,4.32H330.1V385.235Zm-.112-2.34h11.7c-1.66-2.4-3.207-4.661-4.782-6.9a1.058,1.058,0,0,0-.723-.414c-2.044-.034-4.09-.019-6.194-.019Zm6.291,13.732a3.712,3.712,0,0,0-3.57-3.915,3.881,3.881,0,0,0-3.895,3.661,3.713,3.713,0,0,0,3.562,3.8A3.651,3.651,0,0,0,323.674,396.627Zm-27.313,3.545a3.639,3.639,0,0,0,3.672-3.785,3.706,3.706,0,1,0-7.412.086A3.612,3.612,0,0,0,296.362,400.172Z" transform="translate(-284.982 -367.892)"/></svg>