<svg xmlns="http://www.w3.org/2000/svg" width="21.263" height="14.98" viewBox="0 0 21.263 14.98"><defs><style>.a{fill:#fff;}</style></defs><path d="M631.272,708.993a2.672,2.672,0,0,0-1.88-1.892c-1.658-.447-8.307-.447-8.307-.447s-6.649,0-8.307.447a2.672,2.672,0,0,0-1.88,1.892,30.083,30.083,0,0,0,0,10.3,2.672,2.672,0,0,0,1.88,1.892c1.658.447,8.307.447,8.307.447s6.649,0,8.307-.447a2.672,2.672,0,0,0,1.88-1.892,30.079,30.079,0,0,0,0-10.3Z" transform="translate(-610.454 -706.654)"/><path class="a" d="M801.523,810.78v-6.323l5.557,3.162Z" transform="translate(-793.066 -800.128)"/></svg>