<svg xmlns="http://www.w3.org/2000/svg" width="39.264" height="39.25" viewBox="0 0 39.264 39.25"><defs><style>.a{fill:#2897ff;}</style></defs><g transform="translate(0)"><g transform="translate(0 0)"><path class="a" d="M29.554,23.587a3.906,3.906,0,0,0,3.434-2.021L40.014,8.829a1.955,1.955,0,0,0-1.707-2.9H9.262L7.417,2H1V5.925H4.925l7.065,14.9L9.341,25.609a3.932,3.932,0,0,0,3.434,5.829h23.55V27.512H12.775l2.159-3.925ZM11.126,9.85H34.971l-5.416,9.812H15.777Z" transform="translate(-1 -2)"/><path class="a" d="M8.915,18a3.925,3.925,0,1,0,3.925,3.925A3.92,3.92,0,0,0,8.915,18Z" transform="translate(2.86 13.4)"/><path class="a" d="M18.915,18a3.925,3.925,0,1,0,3.925,3.925A3.92,3.92,0,0,0,18.915,18Z" transform="translate(12.484 13.4)"/></g></g></svg>