<svg xmlns="http://www.w3.org/2000/svg" width="55.023" height="55.023" viewBox="0 0 55.023 55.023"><defs><style>.a{fill:none;}.b{fill:#d9b973;}</style></defs><path class="a" d="M0,0H55.023V55.023H0Z"/><path class="b" d="M52.731,22.657l-11.463-.023a2.3,2.3,0,0,0-2.293,2.293V45.56a2.3,2.3,0,0,0,2.293,2.293H52.731a2.3,2.3,0,0,0,2.293-2.293V24.926A2.28,2.28,0,0,0,52.731,22.657Zm0,20.611H41.268V27.219H52.731ZM45.853,2H4.585A4.569,4.569,0,0,0,0,6.585V34.1a4.584,4.584,0,0,0,4.585,4.585H20.634v4.585H16.049v4.585H34.39V43.268H29.8V38.682H34.39V34.1H4.585V6.585H45.853V18.049h4.585V6.585A4.584,4.584,0,0,0,45.853,2ZM27.443,18.049l-2.224-6.878L23,18.049H16.049l5.663,4.035-2.155,6.672,5.663-4.127,5.663,4.127-2.155-6.672,5.663-4.035Z" transform="translate(0 2.585)"/></svg>