<svg xmlns="http://www.w3.org/2000/svg" width="41.318" height="39.144" viewBox="0 0 41.318 39.144"><defs><style>.a{fill:#2897ff;}</style></defs><g transform="translate(0 0)"><g transform="translate(0 0)"><path class="a" d="M42.144,12.307V7.349A4.362,4.362,0,0,0,37.794,3H7.349A4.348,4.348,0,0,0,3,7.349V37.794a4.348,4.348,0,0,0,4.349,4.349H37.794a4.362,4.362,0,0,0,4.349-4.349V32.836a4.351,4.351,0,0,0,2.175-3.74V16.048A4.351,4.351,0,0,0,42.144,12.307Zm-2.175,3.74V29.1H24.746V16.048ZM7.349,37.794V7.349H37.794V11.7H24.746A4.362,4.362,0,0,0,20.4,16.048V29.1a4.362,4.362,0,0,0,4.349,4.349H37.794v4.349Z" transform="translate(-3 -3)"/><g transform="translate(25.008 16.31)"><circle class="a" cx="3.262" cy="3.262" r="3.262" transform="translate(0)"/></g></g></g></svg>