<svg xmlns="http://www.w3.org/2000/svg" xmlns:xlink="http://www.w3.org/1999/xlink" width="116" height="116" viewBox="0 0 116 116"><defs><style>.a{fill:none;}.b{clip-path:url(#a);}</style><clipPath id="a"><rect class="a" width="116" height="116"/></clipPath></defs><g class="b"><path d="M58,116a57.746,57.746,0,0,1-28.516-7.515L2.6,115.693A1.871,1.871,0,0,1,.307,113.4L7.515,86.516A57.987,57.987,0,1,1,58,116M29.748,104.606a1.871,1.871,0,0,1,.946.258A54.315,54.315,0,1,0,11.136,85.3a1.866,1.866,0,0,1,.194,1.431l-6.569,24.5,24.5-6.569a1.891,1.891,0,0,1,.484-.064"/><path d="M284.791,327.6c0-.06-.036-.109-.042-.169a13.346,13.346,0,1,0-13.321,13.784,13.222,13.222,0,0,0,6.863-1.957,40.752,40.752,0,0,1-7.921,15.964,1.412,1.412,0,0,0,2.115,1.868,44.79,44.79,0,0,0,12.306-29.238v-.039c0-.071,0-.142,0-.213" transform="translate(-228.129 -278.012)"/><path d="M538.192,327.435a13.346,13.346,0,1,0-13.321,13.784,13.221,13.221,0,0,0,6.863-1.958,40.751,40.751,0,0,1-7.921,15.964,1.412,1.412,0,0,0,2.115,1.868,44.79,44.79,0,0,0,12.306-29.238l0-.039c0-.071-.037-.323-.044-.382" transform="translate(-452.173 -278.011)"/></g></svg>