<svg xmlns="http://www.w3.org/2000/svg" xmlns:xlink="http://www.w3.org/1999/xlink" width="96.974" height="96.96" viewBox="0 0 96.974 96.96"><defs><style>.a{fill:#f7db7b;fill-rule:evenodd;}.b{fill:url(#a);}.c{fill:#fff;}</style><linearGradient id="a" x1="0.176" y1="0.092" x2="0.748" y2="0.917" gradientUnits="objectBoundingBox"><stop offset="0" stop-color="#fff08e"/><stop offset="1" stop-color="#dd9c44"/></linearGradient></defs><g transform="translate(-495.073 -257.382)"><path class="a" d="M543.553,257.382a48.48,48.48,0,1,0,48.494,48.48A48.489,48.489,0,0,0,543.553,257.382Z" transform="translate(0 0)"/><circle class="b" cx="41.528" cy="41.528" r="41.528" transform="translate(501.905 347.264) rotate(-89.825)"/><g transform="translate(-506.881 -203.067)"><path class="c" d="M1051.057,502.632h-.522q-7.186,0-14.372,0a2.936,2.936,0,0,1-.613-.045.955.955,0,0,1-.8-.918c-.022-1.317-.026-2.634,0-3.951a.964.964,0,0,1,.9-.954,4.492,4.492,0,0,1,.615-.039q6.877,0,13.754,0h.545a5.715,5.715,0,0,0-2.074-2.319,9,9,0,0,0-3.711-1.38,40.51,40.51,0,0,0-4.052-.323c-1.522-.054-3.047-.01-4.571-.013-1.029,0-1.438-.414-1.44-1.452q0-2.08,0-4.159c0-1.031.389-1.416,1.413-1.416h29.115c1.023,0,1.434.393,1.432,1.407,0,1.179,0,2.36-.05,3.538a.95.95,0,0,1-.913.942,3.478,3.478,0,0,1-.532.034q-3.706,0-7.413,0h-.528c.139.22.225.369.323.509a11.442,11.442,0,0,1,1.791,4.078c.1.449.285.573.733.565,1.715-.028,3.432-.012,5.147-.01a4.03,4.03,0,0,1,.533.035.983.983,0,0,1,.945,1.005c.027,1.248.032,2.5.01,3.746a1.056,1.056,0,0,1-1.19,1.121c-1.757.009-3.514,0-5.271,0-.656,0-.664,0-.78.617a13.031,13.031,0,0,1-3.465,6.786,14.4,14.4,0,0,1-6.049,3.772c-1.534.49-3.12.819-4.692,1.223.029.034.115.146.211.25,5.275,5.708,10.234,11.686,15.164,17.689.322.392.643.785.957,1.184a.934.934,0,0,1,.081,1.079,1.043,1.043,0,0,1-.96.661q-3.562.01-7.124,0a1.291,1.291,0,0,1-.972-.614c-1.43-1.7-2.836-3.426-4.3-5.1q-6.041-6.913-12.121-13.791c-.344-.391-.7-.774-1.06-1.151a1.508,1.508,0,0,1-.44-1.112c.011-1.386,0-2.773.006-4.159a1.194,1.194,0,0,1,1.352-1.332c1.537-.006,3.076.032,4.612-.015a15.228,15.228,0,0,0,6.612-1.459,6.971,6.971,0,0,0,3.676-4.172C1051,502.888,1051.021,502.783,1051.057,502.632Z" transform="translate(0)"/></g></g></svg>