<svg xmlns="http://www.w3.org/2000/svg" width="21.789" height="17.27" viewBox="0 0 21.789 17.27"><defs><style>.a{fill:#2897ff;}</style></defs><g transform="translate(-346.026 -122.917)"><path class="a" d="M383.288,188.2a1.525,1.525,0,1,0,1.525,1.525A1.525,1.525,0,0,0,383.288,188.2Z" transform="translate(-27.952 -51.064)"/><path class="a" d="M411.44,188.2a1.525,1.525,0,1,0,1.525,1.525A1.525,1.525,0,0,0,411.44,188.2Z" transform="translate(-49.972 -51.064)"/><path class="a" d="M367.65,124.641H353.824a.156.156,0,0,0-.158.21l.378,1.324a.306.306,0,0,0,.277.21h11a.153.153,0,0,1,.162.125l-2.15,7.327a.309.309,0,0,1-.279.209h-9.194a.3.3,0,0,1-.276-.21l-2.993-10.708a.3.3,0,0,0-.277-.21h-4.12a.166.166,0,0,0-.024.005.174.174,0,0,0-.04.008.153.153,0,0,0-.1.2l.371,1.323a.3.3,0,0,0,.277.21h2.3a.3.3,0,0,1,.276.21l2.994,10.708a.3.3,0,0,0,.276.21h11.84a.31.31,0,0,0,.279-.209l3.161-10.728A.154.154,0,0,0,367.65,124.641Z" transform="translate(0 0)"/></g></svg>