<svg xmlns="http://www.w3.org/2000/svg" width="183.659" height="152.599" viewBox="0 0 183.659 152.599"><defs><style>.a{fill:#b0a6dd;fill-rule:evenodd;}</style></defs><g transform="translate(-392.594 -327.67)"><path class="a" d="M513.424,399.331a52.02,52.02,0,1,1-52.02,52.02,52.02,52.02,0,0,1,52.02-52.02m0-10.809A62.828,62.828,0,1,1,480.883,505.1H452.608a5.968,5.968,0,0,1,0-11.936h13.93a63.012,63.012,0,0,1-8.4-11.956H420.18a5.968,5.968,0,1,1,0-11.936H453.2a62.5,62.5,0,0,1-2.318-11.956H431.214a5.968,5.968,0,0,1,0-11.936h19.662a62.531,62.531,0,0,1,2.315-11.956H415.9a5.968,5.968,0,1,1,0-11.936h42.233a63.034,63.034,0,0,1,8.4-11.956H398.562a5.968,5.968,0,0,1,0-11.936h82.317A62.525,62.525,0,0,1,513.424,388.522Z" transform="translate(0 -33.91)"/><path class="a" d="M617.036,443.454a38.507,38.507,0,1,0,38.507,38.507A38.507,38.507,0,0,0,617.036,443.454Zm13.04,34.562-11.647,9.833-5.8-10.039,14.339-5.17,16.54-5.965Z" transform="translate(-103.612 -64.52)"/><path class="a" d="M649.946,351.521v-9.767H656.4a4.517,4.517,0,0,0,4.5-4.5v-5.077a4.516,4.516,0,0,0-4.5-4.5H629.824a4.516,4.516,0,0,0-4.5,4.5v5.077a4.517,4.517,0,0,0,4.5,4.5h6.45v9.767a63.762,63.762,0,0,1,13.672,0" transform="translate(-129.686)"/></g></svg>