<svg xmlns="http://www.w3.org/2000/svg" width="33.412" height="44.324" viewBox="0 0 33.412 44.324"><defs><style>.a{fill:#fff;}</style></defs><g transform="translate(-1099.646 -1913.107)"><path class="a" d="M305.442,213.639a6.15,6.15,0,0,1,3.248,1.96,4.37,4.37,0,0,1,.945,1.507,2.527,2.527,0,0,0,2.43,2.1c1.262.206,2.493.645,3.744.949.763.185,1.024.618.777,1.478-.157.547-.215,1.129-.349,1.884,1.572-.552,1.867.805,2.512,1.743a10.48,10.48,0,0,1,1.449,5.81c.231,6.028.543,12.05.824,18.075q.179,3.881.356,7.762c.031.687-.249,1.048-.872,1.052H289.554c-1.648,0-1.648-.046-1.551-1.875.169-3.208.276-6.42.423-9.63q.425-9.235.876-18.468a2.086,2.086,0,0,1,.265-.8c.465-.907.911-1.832,1.446-2.687a12.841,12.841,0,0,1,1.378-1.542c-.113-1.02-.257-2.408-.425-3.794-.179-1.482-.079-1.64,1.21-1.809,2-.262,4-.516,5.993-.805a1.447,1.447,0,0,0,.942-.4,6.684,6.684,0,0,1,3.752-2.511Zm-16.166,42.8H320.03L318.753,228.7h-28.2Zm3.99-37.639.876,8.334h3.266c-.148-.754-.228-1.439-.422-2.079-.265-.879.1-1.2.78-1.368.8-.194,1.589-.4,2.38-.622,1.173-.324,2.345-.66,3.508-.988l-.512-4.591Zm13.815,2.286c1.755-.219,1.758-.219,2.173,1.691.32,1.476.632,2.955.948,4.432,1.176,0,2.228-.02,3.279.009.47.013.652-.173.75-.7.3-1.628.665-3.242,1.028-4.969l-7.834-2.068Zm-8.216,6.059h9.968l-.988-4.583c-.108-.016-.138-.031-.165-.023-2.6.7-5.2,1.414-7.8,2.113-1.724.462-1.727.454-1.1,2.344A.726.726,0,0,0,298.866,227.146Zm9.764-8.932c-1.058-3-4.815-4.176-6.356-2.093.27-.039.527-.089.785-.112,1.153-.1,1.21-.054,1.367,1.242.18,1.48.344,2.962.516,4.443l.234.129a3.385,3.385,0,0,0,.564-.788,10.431,10.431,0,0,0,.265-1.333c.4-1.875.4-1.872,2.113-1.543C308.258,218.187,308.4,218.19,308.63,218.214Zm9.553,8.944a16.1,16.1,0,0,0-1.046-1.951,1.173,1.173,0,0,0-.918-.29c-.149.005-.351.347-.418.577-.153.52-.238,1.064-.363,1.665Zm-25.349.005-.278-2.265-.216-.04-1.241,2.3Z" transform="translate(811.678 1699.468)"/><path class="a" d="M308.307,232.98a2.868,2.868,0,0,0-.885-2.743c-1.007-.825-.8-2.693.143-3.629a2.1,2.1,0,0,1,3.321.341,2.747,2.747,0,0,1-.417,3.633,1.512,1.512,0,0,0-.608,1.4,23.338,23.338,0,0,1-.145,3.4c-.625,4.057-3.541,6.445-7.331,6.1-3.085-.285-5.618-3.519-5.692-7.279-.011-.569-.019-1.14,0-1.708a2.229,2.229,0,0,0-.789-2.11,2.684,2.684,0,0,1-.065-3.639,2.1,2.1,0,0,1,3.331.07,2.718,2.718,0,0,1-.207,3.648,1.958,1.958,0,0,0-.725,1.917,21.5,21.5,0,0,0,.222,3.387,5.036,5.036,0,0,0,5.3,4.092,5.485,5.485,0,0,0,4.543-5.377C308.329,234.02,308.307,233.563,308.307,232.98Zm-10.148-4.266.255-.261c-.355-.252-.7-.672-1.067-.7-.233-.014-.495.562-.812.957Zm11.607-.012.24-.179c-.282-.282-.565-.789-.842-.784-.331,0-.658.448-.985.7l.14.261Z" transform="translate(813.946 1700.701)"/></g></svg>