<svg xmlns="http://www.w3.org/2000/svg" xmlns:xlink="http://www.w3.org/1999/xlink" width="99.692" height="99.692" viewBox="0 0 99.692 99.692"><defs><style>.a{fill:#f7db7b;}.a,.c{fill-rule:evenodd;}.b{fill:#fff;}.c{fill:url(#a);}</style><linearGradient id="a" x1="0.5" x2="1.123" y2="0.429" gradientUnits="objectBoundingBox"><stop offset="0" stop-color="#fff08e"/><stop offset="1" stop-color="#dd9c44"/></linearGradient></defs><g transform="translate(-230.761 -233.784)"><path class="a" d="M234.473,333.476a3.673,3.673,0,0,1-2.623-1.073,3.721,3.721,0,0,1-1.089-2.638V235.027a1.26,1.26,0,0,1,1.258-1.242h4.908a1.26,1.26,0,0,1,1.258,1.242v91.026H329.2a1.264,1.264,0,0,1,1.258,1.258v4.923a1.25,1.25,0,0,1-1.258,1.242Z" transform="translate(0 0)"/><rect class="b" width="69.025" height="69.033" transform="translate(238.189 257.021)"/><path class="c" d="M232.3,295.832l18.481-23.911a5.218,5.218,0,0,1,1.779-1.457,5,5,0,0,1,2.254-.506L274.4,269.9l8.7-15.368-5.583,2.73a3.463,3.463,0,0,1-4.617-1.595l-1.411-2.884a3.448,3.448,0,0,1,1.58-4.617q13.918-6.833,27.852-13.65.552,15.506,1.1,31a3.468,3.468,0,0,1-3.328,3.573l-3.221.107a3.458,3.458,0,0,1-3.574-3.328l-.215-6-10.168,17.852a4.944,4.944,0,0,1-1.733,1.641,5.062,5.062,0,0,1-2.485.659l-20.03.061-16.948,21.948a3.48,3.48,0,0,1-4.846.629l-2.561-1.978A3.472,3.472,0,0,1,232.3,295.832Z" transform="translate(11.746 10.466)"/></g></svg>