<svg xmlns="http://www.w3.org/2000/svg" xmlns:xlink="http://www.w3.org/1999/xlink" width="54.02" height="54.02" viewBox="0 0 54.02 54.02"><defs><style>.a{fill:#d3a855;}.b{clip-path:url(#a);}</style><clipPath id="a"><path class="a" d="M0,0H54.02V54.02H0Z"/></clipPath></defs><g class="b"><path class="a" d="M14.316,21.547V13.129a5.627,5.627,0,0,1,11.254,0v8.418a10.129,10.129,0,1,0-11.254,0ZM36.464,31.968,26.245,26.881a3.17,3.17,0,0,0-1.215-.248H23.319v-13.5a3.376,3.376,0,0,0-6.752,0V37.3l-7.72-1.621a3.934,3.934,0,0,0-.54-.068,2.518,2.518,0,0,0-1.778.743l-1.778,1.8L15.869,49.277a3.388,3.388,0,0,0,2.386.99H33.538a3.278,3.278,0,0,0,3.241-2.881l1.688-11.862a3.235,3.235,0,0,0-2-3.556Z" transform="translate(5.941 3.752)"/></g></svg>