<svg xmlns="http://www.w3.org/2000/svg" width="16" height="20" viewBox="0 0 16 20"><defs><style>.a{fill:#fff;fill-rule:evenodd;}</style></defs><path class="a" d="M654.581,575.1c-.035,0-.071,0-.106,0a1.149,1.149,0,0,1-1.053-1.065h0v-.091c0-.036,0-.072,0-.107l1.213-13.879a1.321,1.321,0,0,1,1.295-1.19h2.44v-.945a2.908,2.908,0,0,1,5.816,0v.945h2.44a1.321,1.321,0,0,1,1.295,1.19l1.213,13.879c0,.037,0,.072,0,.107a1.152,1.152,0,0,1-1.058,1.156c-.035,0-.07,0-.106,0Zm-.261-1.132a.259.259,0,0,0,.065.149.255.255,0,0,0,.167.079H668a.255.255,0,0,0,.167-.079.261.261,0,0,0,.065-.178c0-.01,0-.02,0-.029l-1.213-13.88a.4.4,0,0,0-.132-.256.393.393,0,0,0-.264-.109h-2.44V560.7h-.012a.451.451,0,0,1-.879,0h-.012v-1.034h-4.011V560.7h-.012a.451.451,0,0,1-.879,0h-.012v-1.034h-2.44a.393.393,0,0,0-.264.109.4.4,0,0,0-.132.256l-1.213,13.88c0,.009,0,.019,0,.029Zm8.963-15.2v-.945a2.005,2.005,0,0,0-4.011,0v.945Z" transform="translate(-653.417 -554.911)"/></svg>