<svg xmlns="http://www.w3.org/2000/svg" width="40.197" height="40.024" viewBox="0 0 40.197 40.024"><defs><style>.a{fill:#fff;}</style></defs><g transform="translate(-62.538 -360.141)"><path class="a" d="M81.485,360.141c.37.051.743.092,1.11.157a10.055,10.055,0,0,1,4.373,1.93,10.4,10.4,0,0,1,3.841,5.556,9.111,9.111,0,0,1,.353,2.525c0,.6.011,1.2-.033,1.8a12.732,12.732,0,0,1-.677,2.857,25.1,25.1,0,0,1-2.087,4.543q-3.652,6.6-7.332,13.175c-.023.042-.05.08-.085.136a.786.786,0,0,1-.062-.08q-4.014-7.246-8.027-14.495a18.7,18.7,0,0,1-1.92-5.067,10.155,10.155,0,0,1-.227-1.965,11.2,11.2,0,0,1,.458-3.762,10.559,10.559,0,0,1,4.748-5.894,10.046,10.046,0,0,1,4.077-1.368l.423-.049Zm3.867,10.4a4.393,4.393,0,1,0-4.4,4.446A4.417,4.417,0,0,0,85.352,370.545Z" transform="translate(1.603 0)"/><path class="a" d="M102.735,389.992a3.673,3.673,0,0,1-1.985,2.223,17.208,17.208,0,0,1-4.312,1.672,41.772,41.772,0,0,1-5.4,1.032,63.478,63.478,0,0,1-9.424.512c-1.543-.028-3.085-.128-4.626-.23a45.76,45.76,0,0,1-5.616-.739,27.7,27.7,0,0,1-5.283-1.482,9.123,9.123,0,0,1-2.55-1.451,2.664,2.664,0,0,1-.963-1.435,1.763,1.763,0,0,1,.33-1.432,4.89,4.89,0,0,1,1.7-1.425,17.846,17.846,0,0,1,4.263-1.63,38.312,38.312,0,0,1,5.46-1.031c1.174-.135,2.349-.242,3.524-.358a1.953,1.953,0,0,1,.324.006c-.568.062-1.139.106-1.7.189-1.066.153-2.133.3-3.192.5a19.871,19.871,0,0,0-3.96,1.141,7.436,7.436,0,0,0-1.9,1.068,2.163,2.163,0,0,0-.867,1.251,1.492,1.492,0,0,0,.407,1.3,5.452,5.452,0,0,0,2.017,1.367,20.2,20.2,0,0,0,4.7,1.367c.952.172,1.909.328,2.871.435,1.085.122,2.176.223,3.266.258,1.584.051,3.171.071,4.755.038,1.187-.024,2.372-.132,3.555-.234a33.2,33.2,0,0,0,5.338-.9,14.767,14.767,0,0,0,3.626-1.36,4.485,4.485,0,0,0,1.208-.938,1.515,1.515,0,0,0-.008-2.174,5.5,5.5,0,0,0-1.865-1.273,18.387,18.387,0,0,0-4.426-1.345c-1.226-.225-2.464-.388-3.7-.567-.391-.057-.787-.077-1.179-.14.31.019.62.029.928.061,1.107.114,2.215.207,3.317.359a30.858,30.858,0,0,1,8.37,2.13,8.117,8.117,0,0,1,2,1.215,2.884,2.884,0,0,1,1,1.529Z" transform="translate(0 4.722)"/></g></svg>