<svg xmlns="http://www.w3.org/2000/svg" width="33.6" height="44.1" viewBox="0 0 33.6 44.1"><defs><style>.a{fill:#2897ff;}</style></defs><g transform="translate(0 0)"><path class="a" d="M33.4,15.7H31.3V11.5a10.5,10.5,0,1,0-21,0v4.2H8.2A4.212,4.212,0,0,0,4,19.9v21a4.212,4.212,0,0,0,4.2,4.2H33.4a4.212,4.212,0,0,0,4.2-4.2v-21A4.212,4.212,0,0,0,33.4,15.7ZM14.5,11.5a6.3,6.3,0,1,1,12.6,0v4.2H14.5ZM33.4,40.9H8.2v-21H33.4ZM20.8,34.6a4.2,4.2,0,1,0-4.2-4.2A4.212,4.212,0,0,0,20.8,34.6Z" transform="translate(-4 -1)"/></g></svg>