<svg xmlns="http://www.w3.org/2000/svg" width="169" height="169" viewBox="0 0 169 169">
  <g id="Group_15033" data-name="Group 15033" transform="translate(-655 -461)">
    <g id="Group_15026" data-name="Group 15026" transform="translate(579.835 361.308)">
      <circle id="Ellipse_605" data-name="Ellipse 605" cx="84.5" cy="84.5" r="84.5" transform="translate(75.165 99.692)" fill="#80c1ff"/>
    </g>
    <g id="Group_15030" data-name="Group 15030" transform="translate(-1013.105 -473.551)">
      <g id="Group_15027" data-name="Group 15027" transform="translate(1728.858 960.779)">
        <path id="Path_3670" data-name="Path 3670" d="M2097.016,1284.707l-42.586-42-1.248,1.518,34.527,46.074Z" transform="translate(-2053.182 -1209.725)" fill="#744565"/>
        <path id="Path_3671" data-name="Path 3671" d="M2106.815,1072.916l-42.585-42,23.39-26.984,45.579,35.8Z" transform="translate(-2062.981 -997.934)" fill="#e69e54"/>
      </g>
      <g id="Group_15028" data-name="Group 15028" transform="translate(1719.951 965.61)">
        <path id="Path_3672" data-name="Path 3672" d="M2011.012,1051.7l-26.692-43.422,34.109-23.537,31.034,43.067Z" transform="translate(-1983.196 -984.739)" fill="#f5ba78"/>
        <path id="Path_3673" data-name="Path 3673" d="M1975.688,1193.3l-1.315,1.038,19.548,45.74,8.2-3.416Z" transform="translate(-1974.373 -1169.731)" fill="#744565"/>
      </g>
      <g id="Group_15029" data-name="Group 15029" transform="translate(1725.719 962.281)">
        <path id="Path_3674" data-name="Path 3674" d="M2033.979,983.309a1.585,1.585,0,0,0,1.359-2.4l-5.01-8.382c-2.928-4.9-2.126-10.788,1.788-13.128s9.481-.258,12.41,4.641l5.01,8.382a1.585,1.585,0,0,0,2.721-1.627l-5.01-8.382c-3.825-6.4-11.343-8.972-16.757-5.735s-6.708,11.076-2.883,17.475l5.01,8.382A1.585,1.585,0,0,0,2033.979,983.309Z" transform="translate(-2025.408 -955.281)" fill="#fff"/>
      </g>
      <rect id="Rectangle_4955" data-name="Rectangle 4955" width="13.714" height="2.493" transform="translate(1751.12 991.243) rotate(-36.277)" fill="#e69e54"/>
      <rect id="Rectangle_4956" data-name="Rectangle 4956" width="8.653" height="2.342" transform="matrix(0.806, -0.592, 0.592, 0.806, 1757.694, 991.781)" fill="#e69e54"/>
      <path id="Path_3675" data-name="Path 3675" d="M1800.252,1229.353v2.846h14.076l2.688,8.554a2.843,2.843,0,0,0-.389,2.327l12.008,44.473a2.841,2.841,0,0,0,1.464,1.8l-12.191,16.4a6.533,6.533,0,0,0-.518,6.693,4.835,4.835,0,0,0,4.309,2.834h61.42a2.31,2.31,0,1,0,0-4.62h-61.391a1.31,1.31,0,0,1-.355-.7,1.821,1.821,0,0,1,.242-1.448l12.252-16.48,13.131-2.043a2.31,2.31,0,0,0,1.927-2.638c-.01-.066-.025-.131-.04-.195l41.165-5.971a2.846,2.846,0,0,0,2.367-2.186l8.895-39.136a2.847,2.847,0,0,0-2.888-3.475l-78.825,3.1-2.87-9.132a1.423,1.423,0,0,0-1.358-1Zm48.211,52.106-1.288-11.129,21.921-1.686v9.822Zm-14.99,2.174-3.24-12,14.1-1.085,1.311,11.319Zm-3.995-14.8-3.416-12.653,16.55-.521,1.4,12.057Zm15.988-13.264,23.63-.744v10.96l-22.249,1.712Zm44.48,8.613-18,1.385v-10.831l20.3-.639Zm-44.808-11.45-.987-8.522,24.945-.981v8.749Zm49.8-10.519-2.049,9.016-20.947.659v-8.771Zm-7.639,33.61-15.358,2.227v-9.628l17.343-1.334Zm-64.247-30.783,18.245-.718.984,8.5-16.984.535Z" transform="translate(-99.978 -243.099)" fill="#324a5e"/>
      <ellipse id="Ellipse_607" data-name="Ellipse 607" cx="8.073" cy="8.074" rx="8.073" ry="8.074" transform="translate(1728.417 1064.933)" fill="#f5ba78"/>
      <ellipse id="Ellipse_608" data-name="Ellipse 608" cx="8.073" cy="8.074" rx="8.073" ry="8.074" transform="translate(1760.417 1064.933)" fill="#f5ba78"/>
      <path id="Path_3677" data-name="Path 3677" d="M2036.372,1964.559a9.532,9.532,0,1,1,9.532,9.532A9.543,9.543,0,0,1,2036.372,1964.559Zm2.917,0a6.615,6.615,0,1,0,6.615-6.615A6.623,6.623,0,0,0,2039.289,1964.559Z" transform="translate(-309.414 -891.552)" fill="#ef720c"/>
      <path id="Path_3678" data-name="Path 3678" d="M2036.372,1964.559a9.532,9.532,0,1,1,9.532,9.532A9.543,9.543,0,0,1,2036.372,1964.559Zm2.917,0a6.615,6.615,0,1,0,6.615-6.615A6.623,6.623,0,0,0,2039.289,1964.559Z" transform="translate(-277.414 -891.552)" fill="#ef720c"/>
      <rect id="Rectangle_4957" data-name="Rectangle 4957" width="21.818" height="7.896" rx="3.948" transform="translate(1687.536 983.344)" fill="#ef720c"/>
    </g>
  </g>
</svg>
