<svg xmlns="http://www.w3.org/2000/svg" width="417.961" height="338.352" viewBox="0 0 417.961 338.352"><defs><style>.a{fill:#e0e0e0;fill-rule:evenodd;}</style></defs><g transform="translate(-114.238 -761.527)"><path class="a" d="M327.887,797.33a17.9,17.9,0,1,0-17.911-17.9A17.906,17.906,0,0,0,327.887,797.33Z" transform="translate(-14.936)"/><path class="a" d="M361.291,820.971c-.333-5.214.262-5.526-2.881-8.921S338.05,806,338.05,806H315.606s-18.041,2.654-21.179,6.05-2.615,3.678-2.87,8.9c-.362,7.326-2.471,25.735-2.471,36.269s15.271,35.276,15.271,35.276l11.736,81.619h20.873L348.49,892.5s15-29.043,15-36.017S361.722,827.768,361.291,820.971Z" transform="translate(-13.342 -3.394)"/><path class="a" d="M532.784,914.3a29.1,29.1,0,0,0-29.131,29.073c0,7.153,2.208,14.049,8.692,22.23,5.638,7.113,20.439,22.912,20.439,22.912s12.951-15.043,19.265-22.912,9.865-15.185,9.865-22.23A29.1,29.1,0,0,0,532.784,914.3Zm0,43.991a14.305,14.305,0,1,1,14.305-14.306A14.305,14.305,0,0,1,532.783,958.29Z" transform="translate(-29.715 -11.658)"/><path class="a" d="M150.5,954.472a36.222,36.222,0,0,0-36.26,36.187c0,8.9,2.748,17.49,10.82,27.67,7.017,8.854,25.44,28.52,25.44,28.52s16.122-18.724,23.98-28.52,12.28-18.9,12.28-27.67A36.222,36.222,0,0,0,150.5,954.472Zm0,54.756A17.806,17.806,0,1,1,168.3,991.422,17.806,17.806,0,0,1,150.5,1009.228Z" transform="translate(0 -14.723)"/><path class="a" d="M416.049,972.9a56.114,56.114,0,0,0-56.172,56.06c0,13.792,4.258,27.093,16.761,42.864,10.872,13.717,39.411,44.181,39.411,44.181S441.024,1087,453.2,1071.828s19.024-29.28,19.024-42.864A56.114,56.114,0,0,0,416.049,972.9Zm0,84.824a27.584,27.584,0,1,1,27.583-27.582A27.583,27.583,0,0,1,416.049,1057.728Z" transform="translate(-18.744 -16.13)"/><path class="a" d="M250.063,934.915s6.746-7.834,10.033-11.931,5.138-7.909,5.138-11.577a15.17,15.17,0,0,0-30.34,0c0,3.724,1.15,7.317,4.526,11.577C242.355,926.688,250.063,934.915,250.063,934.915Zm0-30.639a7.45,7.45,0,1,1-7.45,7.45A7.45,7.45,0,0,1,250.063,904.276Z" transform="translate(-9.207 -10.282)"/><path class="a" d="M410.165,934.915s6.745-7.834,10.033-11.932,5.137-7.908,5.137-11.576a15.17,15.17,0,0,0-30.34,0c0,3.724,1.15,7.317,4.526,11.576C402.457,926.688,410.165,934.915,410.165,934.915Zm0-30.639a7.45,7.45,0,1,1-7.45,7.449A7.45,7.45,0,0,1,410.165,904.276Z" transform="translate(-21.424 -10.282)"/><path class="a" d="M361.549,946.974l-3.418,8.843c76.378,0,113.068,13.792,113.068,28.846a9.673,9.673,0,0,1-.68,3.508,61.874,61.874,0,0,1,11.551,28.4c13.6-7.031,21.353-15.114,21.353-23.717C503.423,963.163,449.378,946.974,361.549,946.974Z" transform="translate(-18.611 -14.151)"/><path class="a" d="M292.314,956.526l-3.185-9.894c-38.039,0-70.649,5.078-94.986,12.6a46.643,46.643,0,0,1,6.117,11.054C224.676,962.086,265.216,956.526,292.314,956.526Z" transform="translate(-6.097 -14.125)"/><path class="a" d="M336.269,1024.483q-8.768.284-17.849.287c-50.435,0-94.618-6.792-119.162-16.969a85.294,85.294,0,0,1-12.326,19.743q-.481.6-.992,1.231c31.524,10.885,79.165,17.821,132.48,17.821q10.041,0,19.789-.326a64.071,64.071,0,0,1-2.162-16.789C336.046,1027.8,336.135,1026.133,336.269,1024.483Z" transform="translate(-5.471 -18.793)"/></g></svg>