<svg xmlns="http://www.w3.org/2000/svg" width="342.456" height="338.351" viewBox="0 0 342.456 338.351"><defs><style>.a{fill:#e0e0e0;fill-rule:evenodd;}</style></defs><g transform="translate(-152.301 -119.136)"><path class="a" d="M384.7,383.947,373.93,394.6c51.911,3.218,88.722,11.9,88.722,26.9,0,19.514-62.287,35.335-139.123,35.335S184.406,441.01,184.406,421.5c0-15.3,38.317-24.029,91.894-27.086l-10.98-10.777C199.411,390.443,152.3,408.469,152.3,429.653c0,27.021,76.659,48.922,171.228,48.922s171.227-21.9,171.227-48.922C494.757,408.789,449.048,390.986,384.7,383.947Z" transform="translate(0 -21.088)"/><path class="a" d="M329.962,395.643s48.256-56.047,71.777-85.363S438.5,253.7,438.5,227.453a108.536,108.536,0,0,0-217.071,0c0,26.65,8.226,52.351,32.384,82.827C274.817,336.783,329.962,395.643,329.962,395.643Zm0-219.2a53.3,53.3,0,1,1-53.3,53.3A53.3,53.3,0,0,1,329.961,176.439Z" transform="translate(-5.511)"/></g></svg>