<svg xmlns="http://www.w3.org/2000/svg" width="574.506" height="442.373" viewBox="0 0 574.506 442.373"><defs><style>.a{fill:#eee9ff;}.b{fill:#b0a6dd;}.c{fill:#3252a5;}.d{fill:#b8c7d5;}.e{fill:#d0dcea;}.f{fill:#324684;}.g{fill:#e7e6e9;}.h{fill:#ef935e;}.i{fill:#ffb781;}.j{fill:#0e0e0e;}.k{fill:#fbc758;}.l{fill:#f37621;}.m{fill:#03356d;}.n{fill:#14548e;}.o{fill:#7c2534;}.p{fill:#f5f3f7;}.q{fill:#ee9529;}.r{fill:#ffca1f;}.s{fill:#f57b31;}.t{fill:#d8563d;}.u{fill:#232323;}.v{fill:#d2ddeb;}</style></defs><g transform="translate(-2539.42 2269.811)"><path class="a" d="M2583.2-2142.444c-72.766,110.059-52.392,189.94,43,253.007,98.34,65.018,104.8-20.265,198.154,2.864,63.073,15.627,151.656,127.367,238.631-4.184C3197.063-2093.552,2797.538-2466.624,2583.2-2142.444Z"/><g transform="translate(2772.905 -2245.466)"><rect class="b" width="136.596" height="335.281" transform="translate(132.119 10.35)"/><path class="c" d="M4609.157-2128.688h-10.35v345.632h10.35v-335.281h136.6v335.281h10.35v-345.632H4609.157Z" transform="translate(-4477.039 2128.688)"/><g transform="translate(0 10.35)"><g transform="translate(0 148.304)"><ellipse class="d" cx="5.892" cy="7.534" rx="5.892" ry="7.534" transform="translate(11.126)"/><rect class="d" width="1.767" height="1.631" transform="translate(15.25 0)"/><rect class="d" width="1.767" height="1.631" transform="translate(15.25 13.437)"/><ellipse class="e" cx="5.892" cy="7.534" rx="5.892" ry="7.534" transform="translate(9.573)"/><ellipse class="d" cx="2.345" cy="2.998" rx="2.345" ry="2.998" transform="translate(13.12 4.535)"/><ellipse class="d" cx="2.345" cy="2.998" rx="2.345" ry="2.998" transform="translate(0 4.535)"/><rect class="d" width="13.12" height="5.997" transform="translate(2.345 4.535)"/></g><rect class="f" width="110.87" height="335.281" transform="translate(21.953)"/><rect class="c" width="12.535" height="335.281" transform="translate(9.418)"/><g transform="translate(25.069 148.304)"><ellipse class="d" cx="5.892" cy="7.534" rx="5.892" ry="7.534"/><rect class="d" width="1.767" height="1.631" transform="translate(5.892 0)"/><rect class="d" width="1.767" height="1.631" transform="translate(5.892 13.437)"/><ellipse class="e" cx="5.892" cy="7.534" rx="5.892" ry="7.534" transform="translate(1.553)"/><ellipse class="d" cx="2.345" cy="2.998" rx="2.345" ry="2.998" transform="translate(5.099 4.535)"/><ellipse class="g" cx="2.345" cy="2.998" rx="2.345" ry="2.998" transform="translate(32.75 4.53)"/><ellipse class="d" cx="2.345" cy="2.998" rx="2.345" ry="2.998" transform="translate(18.219 4.535)"/><rect class="d" width="13.12" height="5.997" transform="translate(7.444 4.535)"/><rect class="g" width="14.628" height="5.997" transform="translate(20.564 4.535)"/></g></g></g><g transform="translate(2576.096 -2202.062)"><ellipse class="c" cx="45.932" cy="2.834" rx="45.932" ry="2.834" transform="translate(36.632 309.645)"/><g transform="translate(51.546 131.805)"><path class="h" d="M3082.513-926.627s1.5,5.558.6,5.908-2.5,2.053-2.7,4.857,3.4,7.51,8.912,6.309-.15-17.575-.15-17.575Z" transform="translate(-3075.303 959.193)"/><rect class="c" width="20.729" height="9.864" rx="4.932" transform="translate(0 38.574)"/><g transform="translate(5.951 43.758)"><path class="i" d="M3085.5-853.7s-.851,5.408,1.4,5.007S3087.7-853.745,3085.5-853.7Z" transform="translate(-3085.339 854.67)"/><path class="i" d="M3095.029-859.347s-1.148,7.289,1.889,6.749S3098-859.414,3095.029-859.347Z" transform="translate(-3093.182 859.347)"/><path class="i" d="M3106.059-858.186s-1.147,7.289,1.89,6.749S3109.028-858.253,3106.059-858.186Z" transform="translate(-3102.308 858.386)"/></g><path class="g" d="M3071.182-1110.447l3.324,32.376h9.106l-3.265-34.937Z" transform="translate(-3067.674 1113.008)"/></g><g transform="translate(50.04 131.805)"><path class="j" d="M3108.428-1113.008c-1.745,2.023-3.937,6.824-3.144,18.033,1.266,17.875,2.057,25.626,2.057,25.626l39.1-.92s1.018-30.841-.729-42.739Z" transform="translate(-3094.248 1113.008)"/><path class="j" d="M3271.947-178.865l1.092,6.793s-1.759,4.306-1.274,5.761,15.708,1.7,14.131-.91a43.149,43.149,0,0,1-4.549-11.705C3280.8-182.262,3271.947-178.865,3271.947-178.865Z" transform="translate(-3232.078 341.273)"/><path class="j" d="M3053.206-189.75l-3.853,7.319s-1.759,4.306-1.273,5.762,16.841.484,14.131-.91c-4.014-2.064.538-9.155-.009-12.491S3053.206-189.75,3053.206-189.75Z" transform="translate(-3046.98 350.442)"/><path class="j" d="M3097.465-1034.9l-26.208-1.344s4.48,70.336,2.464,75.936c-1.839,5.108-8.9,65.195-10.122,75.712h10.773c2.71-7.192,17.455-47.731,19.284-83.1C3095.673-1006.68,3097.465-1034.9,3097.465-1034.9Z" transform="translate(-3059.893 1049.49)"/><path class="j" d="M3204.174-1034.416s.1,55.227-1.017,71.355-.9,74.816-.9,74.816H3191.3s-7.858-44.8-6.066-56.672-17.391-81.539-8.181-90.483C3189.792-1047.769,3204.174-1034.416,3204.174-1034.416Z" transform="translate(-3151.696 1053.135)"/><g transform="translate(37.472 165.077)"><path class="j" d="M3261.971-154.045a6.962,6.962,0,0,0-2.624,5.849c.225,3.824.825,7.573.825,7.573h31.493s1.275-5.549-3.974-6.449-11.472-11.023-15.072-8.623-5.4,3.674-5.4,3.674Z" transform="translate(-3259.334 156.062)"/><path class="j" d="M3338.687-147.85s-8.548,5.474-6.673,7.124,9.073-5.1,9.073-5.1Z" transform="translate(-3319.253 149.267)"/><path class="j" d="M3361.91-128.724s-7.949,4.8-6.074,6.449,8.473-4.424,8.473-4.424Z" transform="translate(-3338.953 133.44)"/><path class="j" d="M3287.69-124.017a6.528,6.528,0,0,1-1.749-.6,12.521,12.521,0,0,0-3.51,5.62h-15.5c0-.05-.008-.1-.013-.15a10.454,10.454,0,0,0-7.061-9.058,6.8,6.8,0,0,0-.512,3.059c.225,3.824.825,7.573.825,7.573h31.493S3292.939-123.117,3287.69-124.017Z" transform="translate(-3259.334 133.007)"/></g><g transform="translate(0 165.077)"><path class="j" d="M3044.749-154.045a6.964,6.964,0,0,0-2.624,5.849c.225,3.824.825,7.573.825,7.573h31.493s1.275-5.549-3.974-6.449S3059-158.094,3055.4-155.695s-5.4,3.674-5.4,3.674Z" transform="translate(-3042.112 156.062)"/><path class="j" d="M3121.465-147.85s-8.548,5.474-6.674,7.124,9.073-5.1,9.073-5.1Z" transform="translate(-3102.031 149.267)"/><path class="j" d="M3144.688-128.724s-7.948,4.8-6.074,6.449,8.473-4.424,8.473-4.424Z" transform="translate(-3121.73 133.44)"/><path class="j" d="M3070.468-124.017a6.524,6.524,0,0,1-1.749-.6,12.519,12.519,0,0,0-3.51,5.62h-15.5c0-.05-.008-.1-.013-.15a10.453,10.453,0,0,0-7.061-9.058,6.793,6.793,0,0,0-.512,3.059c.225,3.824.825,7.573.825,7.573h31.493S3075.717-123.117,3070.468-124.017Z" transform="translate(-3042.112 133.007)"/></g></g><path class="k" d="M3262.08-1860.485s11.986-9.954,14.289-6.027-9.616,13.476-17.268,16.252S3262.08-1860.485,3262.08-1860.485Z" transform="translate(-3169.337 1869.093)"/><path class="e" d="M3192.544-1570.655l1-2.9a100.616,100.616,0,0,1,9.427,3.536c4.487,1.994,5.732,3.515,5.732,3.515l-3.919,4.6Z" transform="translate(-3116.554 1625.914)"/><path class="h" d="M3163.318-1709.852s2.4,22.878-3.73,26.939-8.877,9.652-.937,12.831,16.661-2.786,15.673-6.208.44-30.023.44-30.023Z" transform="translate(-3084.456 1738.698)"/><ellipse class="h" cx="10.623" cy="15.644" rx="10.623" ry="15.644" transform="matrix(0.945, -0.327, 0.327, 0.945, 72.807, 11.348)"/><path d="M3189.113-1859.649a14.173,14.173,0,0,0-8.718-2.15,13.152,13.152,0,0,0-8.392,3.506c-2.1,1.95-3.232,5.082-4.116,7.735-2.061,6.185.264,22.537,8.784,22.121,1.687-.082,2.926-1.382,3.967-2.561a12.539,12.539,0,0,0,2.471-4.416,14.924,14.924,0,0,0,.61-4.974,15.318,15.318,0,0,0-.307-2.723c-.009-.045-.022-.089-.033-.134a10.929,10.929,0,0,0,8.615-8.477A7.351,7.351,0,0,0,3189.113-1859.649Z" transform="translate(-3095.568 1864.448)"/><path class="h" d="M3241.217-1748.688s-6.021-2.842-6.176,2.295,6.816,6.012,6.816,6.012Z" transform="translate(-3151.718 1771.484)"/><path class="h" d="M3315.97-1766.357s4.467,4.911,3.736,5.833-2.83,3.045-2.83,3.045Z" transform="translate(-3218.689 1785.456)"/><path class="j" d="M3251.938-1748.849s13.477,1.038,13.9,1.887c.245.489-.986,6.158-4.839,11.582L3250.6-1741.3s3.667.352,4.091-2.778S3251.938-1748.849,3251.938-1748.849Z" transform="translate(-3164.591 1770.968)"/><path class="l" d="M3139.826-1537.772c-1.586-24.15-11.105-28.733-11.105-28.733-8,1.47-14.012-2.691-15.159-7.051-12.743,8.109-15.185,29.175-17.669,89.925h25.437l2.032-10.3,2.649,10.3h13.772C3140.005-1497.49,3140.654-1525.159,3139.826-1537.772Z" transform="translate(-3036.574 1625.914)"/><path class="l" d="M3172.038-1876.862c-7.343,1.058-9.784,7.438-10.471,13.273,3.127.079,9.242.576,9.3,3.254.057,2.517-5.923,2.888-9.521,2.883.047,1.15.126,1.854.126,1.854a43.935,43.935,0,0,0,13.814-.745c7.178-1.625,15.1-7.449,15.1-7.449S3187.071-1879.029,3172.038-1876.862Z" transform="translate(-3090.74 1877.073)"/><g transform="translate(0 56.929)"><g transform="translate(70.354)"><path class="m" d="M3186.307-1540.554c-2.937-5.11-8.63-6.5-13.958-6.5v0a42.963,42.963,0,0,0-12.22,1.988l-.258,67.962.645,9.8s18.96-5.678,24.5-12.767C3196.108-1494.258,3192.755-1529.335,3186.307-1540.554Zm-3.895,58.445c-1.888,2.415-6.49,5.26-12.958,8.01-2.17.923-4.241,1.7-5.921,2.3l-.356-5.411.248-65.36a38.237,38.237,0,0,1,8.923-1.181c5.513,0,9.245,1.629,11.092,4.843,3,5.214,5.256,16.544,5.493,27.553C3189.212-1498.426,3186.835-1487.767,3182.412-1482.109Z" transform="translate(-3159.87 1547.056)"/></g><rect class="n" width="39.981" height="82.463" transform="translate(38.026 0.114)"/><rect class="m" width="36.597" height="82.463" transform="translate(1.43 0.114)"/><path class="n" d="M2796.978-1537.941v-8.453h-36.657v8.453c0,4.635,3.45,8.392,7.706,8.392h21.245C2793.528-1529.549,2796.978-1533.306,2796.978-1537.941Z" transform="translate(-2758.892 1546.508)"/><path class="m" d="M2788.8-1538.632l1.318-7.762h-36.657l-1.318,7.762a6.333,6.333,0,0,0,6.4,7.706h21.245A9.513,9.513,0,0,0,2788.8-1538.632Z" transform="translate(-2752.033 1546.508)"/><path class="n" d="M2829.355-1515.269h-17.312l.493-2.8h17.312Z" transform="translate(-2801.691 1523.07)"/><g transform="translate(0.856 8.121)"><g transform="translate(73.413 1.14)"><path class="o" d="M3184.494-1491.266a.137.137,0,0,1-.137-.135l-.019-1.656-1.6.4a.137.137,0,0,1-.166-.1.137.137,0,0,1,.1-.166l1.764-.438a.137.137,0,0,1,.117.025.135.135,0,0,1,.053.107l.022,1.828a.137.137,0,0,1-.135.138Z" transform="translate(-3182.571 1493.368)"/></g><g transform="translate(74.902 0.232)"><path class="o" d="M3192.924-1496.158a.137.137,0,0,0-.03-.19l-1.333-.982,1.254-1.065a.137.137,0,0,0,.015-.193.137.137,0,0,0-.193-.016l-1.385,1.177a.138.138,0,0,0-.048.109.137.137,0,0,0,.056.105l1.472,1.085a.137.137,0,0,0,.191-.029Z" transform="translate(-3191.204 1498.636)"/></g><rect class="d" width="18.397" height="5.322" transform="translate(10.072 54.665)"/><g transform="translate(73.428 62.833)"><path class="o" d="M3183.042-1133.173a.142.142,0,0,1-.005-.2l1.174-1.254-1.48-.849a.142.142,0,0,1-.052-.194.142.142,0,0,1,.194-.052l1.635.938a.143.143,0,0,1,.07.1.142.142,0,0,1-.037.118l-1.3,1.385a.142.142,0,0,1-.2.007Z" transform="translate(-3182.658 1135.74)"/></g><g transform="translate(74.652 62.442)"><path class="o" d="M3191.632-1135.459a.142.142,0,0,0-.047-.194l-1.462-.9,1.2-1.209a.142.142,0,0,0,0-.2.142.142,0,0,0-.2,0l-1.331,1.336a.143.143,0,0,0-.04.117.143.143,0,0,0,.066.1l1.615.994a.142.142,0,0,0,.2-.047Z" transform="translate(-3189.753 1138.004)"/></g><g transform="translate(0 1.502)"><g transform="translate(25.508 1.227)"><path class="m" d="M2952.3-1420.866a11.354,11.354,0,0,1-.356-1.348l-33.524,5.078-9.9-10.553,8.663-6.747,38.184-48.407c-1.1-.709-1.648-.641-2.091-1.312l-37.841,47.958-10.56,8.224,12.646,13.475,34.966-5.307C2952.413-1420.176,2952.376-1420.557,2952.3-1420.866Z" transform="translate(-2904.869 1484.155)"/></g><g transform="translate(25.508 1.673)"><path class="e" d="M2952.3-1420.372a11.358,11.358,0,0,1-.356-1.348l-33.524,5.078-9.9-10.553,8.663-6.747,36.581-46.354a2.858,2.858,0,0,1-2.131-1.277l-36.2,45.87-10.56,8.224L2917.515-1414l34.966-5.307C2952.413-1419.681,2952.376-1420.063,2952.3-1420.372Z" transform="translate(-2904.869 1481.573)"/></g><g transform="translate(36.827)"><path class="p" d="M2970.48-1441.2l.99-.771,37.706-47.775c-.377-.289-1.437-1.088-1.932-1.529l-36.764,46.584Z" transform="translate(-2970.48 1491.27)"/><path class="p" d="M3007.282-1135.573l-34.571,5.245-2.23-2.377v3.6l1.327,1.415,35.955-5.464C3007.654-1133.592,3007.358-1135.2,3007.282-1135.573Z" transform="translate(-2970.48 1196.932)"/></g><g transform="translate(0 42.701)"><path class="e" d="M2757.617-1243.361a1.224,1.224,0,0,0-.619-.375v3.385l8.567,9.619L2757-1221.57v3.386a1.22,1.22,0,0,0,.507-.32l11.4-12.188Z" transform="translate(-2756.998 1243.736)"/></g></g><rect class="e" width="18.397" height="5.322" transform="translate(8.704 54.665)"/><rect class="q" width="0.983" height="2.966" transform="translate(76.168 62.255)"/><rect class="q" width="0.983" height="2.967" transform="translate(76.168)"/></g></g><path class="i" d="M3698.365-1429.687a1.5,1.5,0,0,0-.766-1.459,1.836,1.836,0,0,0,.137-.667c.094-2.9-4.069-1.227-4.973-1.01-.972.234-1.02-1.333-1.693-3.82s-2.134-3.265-2.686-3.243c-.013,0,1.762,6.683-.685,9.17-.842.855-5.465,2.407-5.465,2.407l1.346,5.717s5.168-2.27,7.39-.737c2.037,1.405,6.585.3,7.893-2.057.249-.447-.161-.847-.4-1.068a1.677,1.677,0,0,0,.262-.9,1.5,1.5,0,0,0-.658-1.392A1.649,1.649,0,0,0,3698.365-1429.687Z" transform="translate(-3521.771 1515.303)"/><path class="r" d="M3287.229-1504.5s-43.358,10.488-46.42,11.368-16.12-27.365-22.789-34.17c-6.206-6.333-11.869-.079-13.777,2.795l0,11.344c5.25,15.015,30.851,38.037,37.417,36.242,10.387-2.84,47.162-19.143,47.162-19.143C3291.212-1497.374,3290.08-1503.055,3287.229-1504.5Z" transform="translate(-3126.232 1589.901)"/></g><g transform="translate(2788.37 -2215.511)"><ellipse class="c" cx="45.932" cy="2.834" rx="45.932" ry="2.834" transform="translate(97.694 322.604)"/><g transform="translate(0 0)"><path class="d" d="M4601.5-995.561l-23.539,12.572s8.756,8.578,28.826,8.47,27.618,2.938,26.974-1.283-5.392-13.932-5.392-13.932Z" transform="translate(-4475.257 1161.076)"/><g transform="translate(106.859 139.445)"><g transform="translate(0 5.907)"><path class="i" d="M4934.919-217.66l-2.878,6.1c.457,2.609-.665,7.327-2.071,11.235.706.194,1.405.468,2.091.64,1.347.337,2.7.651,4.03,1.048a20.227,20.227,0,0,1,2.143.752c.82-1.248,1.535-2.492,2.127-3.534,1.527-2.691,5.086-3.705,6.571-5.278C4950.363-210.33,4939.547-215.718,4934.919-217.66Z" transform="translate(-4873.398 372.014)"/><path class="i" d="M4839.38-333.88,4858-313.786l5.951-5.516-16.52-24.488Z" transform="translate(-4798.435 476.386)"/><path class="h" d="M4857.885-328.3l-10.449-15.49-8.056,9.91,3.647,3.936C4846.519-330.112,4852.774-330.086,4857.885-328.3Z" transform="translate(-4798.435 476.386)"/><path class="s" d="M4602.025-1096.2c.91,59.046,2,53.2,4.211,75.017,1.752,17.274,29.03,45.09,34.576,55.643l14.3-7.59c-4-9.215-28.222-46.6-29.4-54.37-.775-5.116,2.559-29.86,3.709-50.522C4632.118-1126.4,4603.775-1115.2,4602.025-1096.2Z" transform="translate(-4602.025 1112.445)"/><path class="t" d="M4894.948-173.323l-.009-.01a.678.678,0,0,0-.958-.036l-11.12,10.307a25.008,25.008,0,0,0-3.6-2.426c-2.7-1.519-5.274-3.118-8.814,1.744-.164.224-7.061,5.2-8.432,7.02a1.159,1.159,0,0,0,1.093,1.845l15.353-2.232,16.458-15.254A.677.677,0,0,0,4894.948-173.323Z" transform="translate(-4816.965 335.514)"/></g><g transform="translate(1.809)"><path class="i" d="M4695.033-168.186c2.073,4.57,6.344,15.874,1.357,16.206-2.158.144-5.458-1.531-8.407-.6s-7.409,2.3-10.862,1.8-6.762-5.108-3.453-5.683,12.733-5.539,15.107-9.208A5.707,5.707,0,0,1,4695.033-168.186Z" transform="translate(-4661.986 337.123)"/><path class="i" d="M4763.285-307.416v27.4h8.114l4.531-29.189Z" transform="translate(-4737.275 453.676)"/><path class="h" d="M4773.064-290.743l2.867-18.464-12.646,1.791v5.366C4765.96-299.8,4770.53-295.527,4773.064-290.743Z" transform="translate(-4737.276 453.676)"/><path class="q" d="M4726.962-1130.437c.91,59.046,2.226,53.176,4.212,75.017.228,2.509.061,47.3.012,59.224h16.19c.789-10.014,4.453-57.774,3.275-65.541-.775-5.116,2.559-29.86,3.709-50.522C4757.055-1160.639,4728.712-1149.44,4726.962-1130.437Z" transform="translate(-4707.219 1146.685)"/><path class="t" d="M4636.463-117.326a24.944,24.944,0,0,0-.994-4.229c-.948-2.951-1.749-5.872-7.65-4.712-3.731.733-12.073,5.473-14.962,8.329a1.159,1.159,0,0,0,.816,1.983h37.954a.677.677,0,0,0,.676-.678v-.014a.678.678,0,0,0-.678-.678Z" transform="translate(-4612.511 302.509)"/></g><circle class="g" cx="3.656" cy="3.656" r="3.656" transform="matrix(0.159, -0.987, 0.987, 0.159, 11.351, 178.786)"/><circle class="g" cx="3.656" cy="3.656" r="3.656" transform="translate(47.445 174.872) rotate(-22.197)"/></g><g transform="translate(0 67.182)"><ellipse class="d" cx="1.475" cy="4.271" rx="1.475" ry="4.271" transform="matrix(1, -0.005, 0.005, 1, 11.619, 17.144)"/><path class="h" d="M3984.249-1498.872a1.474,1.474,0,0,1,.253-1.605,1.8,1.8,0,0,1-.34-.579c-1.008-2.683,3.411-2.436,4.324-2.519.981-.09.53-1.568.37-4.1s1.747-3.4,1.8-2.854c.1,1.025.152,5.773,3.225,7.321,1.057.532,5.866.516,5.866.516l.554,5.765s-5.545-.482-7.134,1.654c-1.457,1.958-6.055,2.364-8.023.58-.374-.339-.118-.842.033-1.123a1.653,1.653,0,0,1-.528-.754,1.477,1.477,0,0,1,.173-1.508A1.624,1.624,0,0,1,3984.249-1498.872Z" transform="translate(-3983.765 1520.159)"/><path class="g" d="M4163.807-1552.538c-.25-3.453,7.839-15.184-.708-12.711-34.2,9.893-56.422,12.729-104.623,16.8.815,0,1.485,1.9,1.5,4.263s-.638,4.274-1.453,4.278c27.059,3.872,99.469,20.814,119.668,3.078Z" transform="translate(-4045.382 1565.589)"/><path class="i" d="M3982.93-1463.764a1.251,1.251,0,0,0,.417,1.943c1.346.665,6.282,2.21,5.62.362S3983.7-1464.473,3982.93-1463.764Z" transform="translate(-3982.609 1481.503)"/><path class="i" d="M3982.884-1451.97a1.251,1.251,0,0,0,.417,1.944c1.346.665,6.282,2.21,5.62.362S3983.657-1452.679,3982.884-1451.97Z" transform="translate(-3982.571 1471.743)"/><path class="i" d="M3985.475-1437.271a1.153,1.153,0,0,0,.384,1.792c1.241.613,5.79,2.037,5.181.333S3986.188-1437.924,3985.475-1437.271Z" transform="translate(-3984.736 1459.566)"/><path class="i" d="M3986.9-1425.479a.966.966,0,0,0,.322,1.5c1.039.513,4.849,1.706,4.339.279S3987.5-1426.027,3986.9-1425.479Z" transform="translate(-3985.955 1449.783)"/></g><path class="u" d="M4749.972-1781.011a7.989,7.989,0,0,0-3.005-5.942c-1.976-1.6-4.562-1.853-6.961-2.357-2.591-.544-5.474-1.68-5.9-4.642-.352-2.471.875-4.9,1.047-7.336a12.491,12.491,0,0,0-.9-5.579c-1.323-3.2-4.189-5.305-7.282-6.633a42.416,42.416,0,0,0-11.143-2.666c-7.215-.965-16.946-.988-21.475-7.41.071-.29.143-.578.217-.862.036-.133-.165-.213-.2-.078-.062.233-.122.468-.181.7a12.327,12.327,0,0,1-1.217-2.33,17.773,17.773,0,0,1-1.031-3.579c-.15-.888-.365-2.492.672-2.949a.108.108,0,0,0-.089-.2c-1.431.631-.873,2.985-.606,4.12a15.323,15.323,0,0,0,2,4.89c.067.1.139.2.208.3a13.631,13.631,0,0,1-1.256,3.529,24.383,24.383,0,0,1-2.65,3.319,17.557,17.557,0,0,0-2.253,3.768q-1.118,2.3-2.172,4.631a95.04,95.04,0,0,0-3.767,9.6,40.458,40.458,0,0,0-2.04,9.124,20.43,20.43,0,0,0,.972,8.356,19.9,19.9,0,0,0,4.6,7.166c3.95,4.11,9.113,6.465,14.518,8,11.107,3.16,23.39,3.895,34.351-.232a42.2,42.2,0,0,0,7.094-3.509,24.791,24.791,0,0,0,5.863-4.749A9.542,9.542,0,0,0,4749.972-1781.011Z" transform="translate(-4559.618 1853.952)"/><ellipse class="d" cx="1.689" cy="11.044" rx="1.689" ry="11.044" transform="translate(118.102 59.441) rotate(-87.515)"/><path class="h" d="M4690.839-1695.044s4.06,18.151,7.808,18.3,1.2,10.028-7.878,9.485-10.924-5.268-8.836-7.665,1.272-15.383,1.272-15.383Z" transform="translate(-4560.646 1739.895)"/><ellipse class="i" cx="16.426" cy="11.208" rx="16.426" ry="11.208" transform="matrix(0.424, -0.905, 0.905, 0.424, 108.939, 46.606)"/><path class="i" d="M4751.862-1734.053s6.135-4.641,6.646.678-7.435,5.759-7.435,5.759Z" transform="translate(-4618.503 1773.727)"/><path class="u" d="M4641.683-1934.121a6.337,6.337,0,0,0-1.924-1.079c-7.422-27.334-28.279-22.138-28.776-9.892a7.306,7.306,0,0,0,3.984,6.992c-.177.223-.348.449-.509.682-4.208,6.078-3.22,12.461,6.562,15.126a11.5,11.5,0,0,0,6.13.232c1.214,4.077,6.23,6.478,10.241,6.274C4645.381-1916.192,4648.495-1928.481,4641.683-1934.121Z" transform="translate(-4502.573 1955.042)"/><path class="j" d="M4639.343-1730.329s5.558,4.145,10.817,2.688a90.141,90.141,0,0,0,10.774-3.91c-6.8,3.363-3.536,7.406-1.792,7.535,0,0-6.03,5.813-12.9,5.226C4636.969-1719.583,4639.343-1730.329,4639.343-1730.329Z" transform="translate(-4525.822 1770.104)"/><path class="g" d="M4623.72-1603.126c-1.879-2.533-8.6-7.364-8.22-16.166-.04.932-5.013,1.473-11.107,1.209s-11-1.234-10.96-2.166c-2.952,10.858-4.8,13.685-5.3,14.9-8.152,13.227-5.915,36.346-6.422,60.439-.344,16.36-2.509,34.421-3.741,44.993l38.723,1.681,2.457-13.815,2.589,14.034c5.5.618,8.451.976,12.031,5.288.245-6.62-3.408-38.914-3.879-62.479C4629.481-1575.435,4632.317-1591.531,4623.72-1603.126Z" transform="translate(-4475.257 1678.003)"/><g transform="translate(90.449 68.075)"><path class="d" d="M4595.845-1429.467c.286.678-1.659,2.145-4.344,3.275s-5.093,1.5-5.378.818,1.658-2.145,4.343-3.275S4595.559-1430.146,4595.845-1429.467Z" transform="translate(-4572.433 1452.338)"/><path class="q" d="M4524.732-1546.1l-7.032,1.842a1.127,1.127,0,0,1-1.253-.575l-6.076-12.675a.71.71,0,0,1,.483-1.031l7.033-1.842a1.127,1.127,0,0,1,1.253.576l6.075,12.675A.71.71,0,0,1,4524.732-1546.1Z" transform="translate(-4509.704 1560.412)"/><path class="k" d="M4521.341-1545.144l-7.033,1.842a1.127,1.127,0,0,1-1.253-.576l-6.076-12.675a.71.71,0,0,1,.484-1.031l7.032-1.842a1.127,1.127,0,0,1,1.253.575l6.076,12.675A.71.71,0,0,1,4521.341-1545.144Z" transform="translate(-4506.897 1559.622)"/><path class="q" d="M4535.782-1535.444a.939.939,0,0,1-.332,1.283.938.938,0,0,1-1.264-.4.938.938,0,0,1,.332-1.283A.938.938,0,0,1,4535.782-1535.444Z" transform="translate(-4529.375 1540.172)"/><path class="i" d="M4539.971-1521.979c-1.686-2.278-.622-5.75-.908-8.449s-4-6.036-4.958-6.843-.6-.047-.713.9.951,2.937,1.818,4.7a1.731,1.731,0,0,1-.252,2.119,21.644,21.644,0,0,1-3.424-2.249c-2.266-1.778-1.455-3.391-1.762-5.2s-.875-2.721-1.243-2.375a11.3,11.3,0,0,0-.642,2.4c-.014-.125-.032-.251-.056-.378-.338-1.8-.921-2.705-1.284-2.353a11.68,11.68,0,0,0-.613,2.479c-.352-.75-.711-1.052-.936-.8a6.553,6.553,0,0,0-.474,2.8c-.2-.44-.45-.783-.653-.358-.39.815.238,5.526,1.248,6.916,1.377,1.9,6.542,6.122,8.2,7.195,2.7,4.161,4.727,7.884,4.727,7.884l5.848-2.46S4541.656-1519.7,4539.971-1521.979Z" transform="translate(-4520.847 1543.332)"/><path class="p" d="M4608.364-1496.744l-12.386-18.383c.286.678-1.659,2.145-4.344,3.275s-5.092,1.5-5.378.819c0,0,15.687,40.6,26.265,41.167,11.715.622,20.552-28.535,22.018-43.757C4636.886-1538.029,4615.667-1547.179,4608.364-1496.744Z" transform="translate(-4572.566 1537.997)"/></g></g></g><g transform="translate(2976.388 -2038.995)"><g transform="translate(0 0)"><g transform="translate(28.264 3.493)"><path class="d" d="M5271.268-870.281l3.707-12.7a285.069,285.069,0,0,0-15.125-28.551,282.819,282.819,0,0,0-17.2,40.966l8.358,22.866L5239.7-860.326c-6.64,26.1-5.771,52.007,24.919,50.016,33.574-2.179,25.147-38.175,13.032-66.628Z" transform="translate(-5236.35 911.532)"/><g transform="translate(19.436 21.837)"><path class="p" d="M5354.812-660.562a.216.216,0,0,1-.066-.011.214.214,0,0,1-.137-.268c11.03-33.937,8.928-65.787,5.223-86.531-4.016-22.481-10.728-37.123-10.8-37.268a.213.213,0,0,1,.1-.283.213.213,0,0,1,.282.1c.068.146,6.8,14.827,10.826,37.359a190.283,190.283,0,0,1,2.925,39.57,170.562,170.562,0,0,1-8.159,47.181A.213.213,0,0,1,5354.812-660.562Z" transform="translate(-5349.017 784.941)"/></g></g><g transform="translate(0 51.437)"><path class="p" d="M5088.365-609.009,5080.2-612.9A194.9,194.9,0,0,1,5072.5-633.6a193.376,193.376,0,0,1,28.732,9.859l7.869,14.668-1.3-11.519c16.342,8.484,29.17,20.714,14.192,35.472-16.386,16.145-30.925-4.531-39.937-23.659Z" transform="translate(-5072.504 633.603)"/><g transform="translate(5.891 6.425)"><path class="d" d="M5164.053-533.268a.213.213,0,0,1-.2-.134c-9.054-22.638-24.089-38.439-35.108-47.707a115.146,115.146,0,0,0-21.971-14.844.212.212,0,0,1-.1-.283.212.212,0,0,1,.283-.1,115.555,115.555,0,0,1,22.052,14.894,130.138,130.138,0,0,1,18.865,19.515,116.664,116.664,0,0,1,16.375,28.369.213.213,0,0,1-.119.276A.213.213,0,0,1,5164.053-533.268Z" transform="translate(-5106.654 596.358)"/></g></g><g transform="translate(4.45)"><g transform="translate(18.978 9.542)"><path class="p" d="M5244.668-762.242a.216.216,0,0,1-.055-.007.212.212,0,0,1-.15-.261c2.689-10.046.559-33.02-5.067-54.628-4.094-15.729-13.567-44.3-31-58.956a.213.213,0,0,1-.026-.3.212.212,0,0,1,.3-.026c17.528,14.728,27.036,43.4,31.142,59.175a200.32,200.32,0,0,1,5.738,32.437c.844,9.68.6,17.638-.672,22.408A.213.213,0,0,1,5244.668-762.242Z" transform="translate(-5208.316 876.47)"/></g><path class="d" d="M5118.666-921.614c-3.753,7.8-19.56-10.955-20.364-10.142C5098.3-931.756,5122.628-929.843,5118.666-921.614Z" transform="translate(-5098.302 931.782)"/></g><g transform="translate(60.166 59.946)"><path class="e" d="M5479.033-569.542l10.178-12.975c12.47-3.008,27.941-2.408,43.423,3.738a170.755,170.755,0,0,1-18.85,26.032l-16.961-.115,13.354,3.947c-13.087,13.227-29.518,22.383-42.505,5.418-11.356-14.833-3.427-29.217,13.156-36.272Z" transform="translate(-5455.262 584.278)"/><g transform="translate(0 7.974)"><path class="d" d="M5421.5-488.083a.215.215,0,0,1-.213-.225c.013-.225.432-5.615,9.23-14.479a111.374,111.374,0,0,1,20.718-15.758,277.425,277.425,0,0,1,39.631-19.49.213.213,0,0,1,.278.117.213.213,0,0,1-.117.277c-35.168,14.353-52.153,27.039-60.208,35.154-8.686,8.751-9.1,14.151-9.107,14.2A.213.213,0,0,1,5421.5-488.083Z" transform="translate(-5421.286 538.051)"/></g></g><g transform="translate(58.005 7.971)"><path class="p" d="M5464.509-885.576s4.544,97.208-40.092,76.286C5373.047-833.368,5464.509-885.576,5464.509-885.576Z" transform="translate(-5408.757 885.576)"/><g transform="translate(2.451 7.888)"><path class="v" d="M5423.179-737.75a.2.2,0,0,1-.034,0,.213.213,0,0,1-.177-.243,181.508,181.508,0,0,1,11.015-38.921,253.288,253.288,0,0,1,15.862-32.424,251.512,251.512,0,0,1,20.442-30.433.213.213,0,0,1,.3-.029.213.213,0,0,1,.029.3,250.991,250.991,0,0,0-20.407,30.383c-9.795,16.96-22.4,43.079-26.821,71.192A.213.213,0,0,1,5423.179-737.75Z" transform="translate(-5422.965 839.852)"/></g><g transform="translate(15.4 40.581)"><path class="v" d="M5498.241-624.386a.208.208,0,0,1-.085-.018.212.212,0,0,1-.109-.28,38.167,38.167,0,0,1,7.469-10.052c4.964-5,13.855-11.756,28.019-15.585a.213.213,0,0,1,.261.15.213.213,0,0,1-.15.261c-14.062,3.8-22.886,10.5-27.813,15.458a37.776,37.776,0,0,0-7.4,9.941A.213.213,0,0,1,5498.241-624.386Z" transform="translate(-5498.028 650.33)"/></g><g transform="translate(26.263 17.43)"><path class="v" d="M5561.214-757.75a.211.211,0,0,1-.109-.03.212.212,0,0,1-.072-.292,43.623,43.623,0,0,0,6-18.182,33.393,33.393,0,0,0-.09-8.03.213.213,0,0,1,.173-.246.212.212,0,0,1,.246.173,33.842,33.842,0,0,1,.1,8.127,44.038,44.038,0,0,1-6.066,18.377A.213.213,0,0,1,5561.214-757.75Z" transform="translate(-5561.001 784.533)"/></g></g></g><g transform="translate(31.359 114.234)"><rect class="e" width="49.123" height="12.572" transform="translate(0 2.74)"/><g transform="translate(4.43 15.312)"><path class="e" d="M5279.972-180.813l4.708,31.047h30.849l4.708-31.047Z" transform="translate(-5279.972 180.813)"/><path class="d" d="M5279.972-180.813l.914,6.03h38.436l.914-6.03Z" transform="translate(-5279.972 180.813)"/></g><g transform="translate(6.232 0)"><path class="p" d="M5339.756-256.578h-49.123a.213.213,0,0,1-.213-.213v-12.572a.213.213,0,0,1,.213-.213h49.123a.213.213,0,0,1,.213.213v12.572A.213.213,0,0,1,5339.756-256.578Zm-48.91-.425h48.7V-269.15h-48.7Z" transform="translate(-5290.42 269.575)"/></g><g transform="translate(9.057 14.348)"><path class="p" d="M5342.568-154.926H5311.72a.213.213,0,0,1-.211-.181l-4.708-31.047a.211.211,0,0,1,.049-.171.212.212,0,0,1,.161-.074h40.264a.213.213,0,0,1,.162.074.216.216,0,0,1,.049.171l-4.708,31.047A.212.212,0,0,1,5342.568-154.926Zm-30.665-.425h30.482l4.644-30.622h-39.769Z" transform="translate(-5306.799 186.399)"/></g></g></g></g></svg>