<svg xmlns="http://www.w3.org/2000/svg" width="540.493" height="414.634" viewBox="0 0 540.493 414.634"><defs><style>.a{fill:#eee9ff;}.b{fill:#a799de;}.c,.p{fill:#fff;}.d{fill:#f6b38e;}.d,.e,.f,.g,.h,.i,.j,.k,.l,.m,.n,.o,.p,.s,.t,.u,.v{fill-rule:evenodd;}.e{fill:#232a34;}.f{fill:#e6e7e8;}.g{fill:#bbbdbf;}.h{fill:#ffca05;}.j{fill:#a7a9a9;}.k{fill:#f4c0a2;}.l{fill:#262b2c;}.m,.q{fill:#f37621;}.n,.r{fill:#ffca1f;}.o{fill:#db5f0b;}.s{fill:#0e0e0e;}.t{fill:#dcdfe7;}.u{fill:#372423;}.v{fill:#e2a90a;}.w{fill:#03356d;}.x{fill:#14548e;}</style></defs><g transform="translate(-176.628 -465.633)"><g transform="translate(176.628 465.633)"><path class="a" d="M795.108,637.574c0-121.1-54.1-171.941-155.434-171.941-104.47,0-67.564,68.564-147.875,98.111-54.261,19.962-174.352-20.747-174.352,124C317.446,910.871,795.108,994.264,795.108,637.574Z" transform="translate(-254.615 -465.633)"/><g transform="translate(0 293.508)"><g transform="translate(10.452)"><path class="b" d="M292.52,1126.032H201.209a1.3,1.3,0,0,1,0-2.583H292.52a1.3,1.3,0,0,1,0,2.583Z" transform="translate(-200.053 -1123.45)"/></g><g transform="translate(51.04 42.045)"><path class="b" d="M367.72,1220.265H292.177a1.3,1.3,0,0,1,0-2.583H367.72a1.3,1.3,0,0,1,0,2.583Z" transform="translate(-291.021 -1217.682)"/></g><g transform="translate(0 19.447)"><path class="b" d="M211.129,1169.617H177.784a1.3,1.3,0,0,1,0-2.583h33.345a1.3,1.3,0,0,1,0,2.583Z" transform="translate(-176.628 -1167.034)"/></g><g transform="translate(46.528 19.447)"><path class="b" d="M306.879,1169.617H282.064a1.3,1.3,0,0,1,0-2.583h24.815a1.3,1.3,0,0,1,0,2.583Z" transform="translate(-280.908 -1167.034)"/></g><g transform="translate(82.782 19.447)"><path class="b" d="M388.131,1169.617H363.316a1.3,1.3,0,0,1,0-2.583h24.815a1.3,1.3,0,0,1,0,2.583Z" transform="translate(-362.16 -1167.034)"/></g></g></g><g transform="translate(327.548 473.73)"><path class="c" d="M656.6,912.027h30.58v30.581Z" transform="translate(-593.363 -720.949)"/><path class="d" d="M1016.3,1108.683l-.885,10.893,14.718.874,1.265-9.776Z" transform="translate(-792.08 -829.861)"/><path class="e" d="M1011.03,1124.982c-4.891,1.546-5.036,13.731-2.073,17.276.017.02.042.039.061.059l50.5-2.536c.964-2.4-.422-9.019-5.647-11.87-4.4-2.4-17.351-3.071-27.671-3.2l-.184.353a16.862,16.862,0,0,1-8.972,1.946c-4.912-.388-5.982-1.975-6.015-2.026" transform="translate(-787.415 -838.736)"/><path class="f" d="M1094.358,1142.285l12.984-.652c.963-2.4,1.557-8.594-3.666-11.445a37.722,37.722,0,0,0-7.852-2.134,16.138,16.138,0,0,0-1.466,14.232" transform="translate(-835.239 -840.588)"/><path class="e" d="M850.082,852.423s-1.949,27.275,8.667,34.744,68.741,2.468,73.958,1.384c0,0-3.77,12.017-6.032,34.938s-3.65,43.739-3.65,43.739c3.316,3.018,13.83,4.434,18.737,2.5,0,0,18.664-78.94,17.59-90.612s-7.767-15.552-21.49-16.892-59.751-6.072-59.751-6.072Z" transform="translate(-700.44 -687.94)"/><path class="f" d="M1098.034,687.545c-2.479-.479-5.274,4.019-6.242,10.044s.258,11.3,2.737,11.778,5.274-4.019,6.242-10.044-.258-11.3-2.737-11.778" transform="translate(-834.197 -596.608)"/><path class="g" d="M1096.32,710.164c2.43.224,5.11-4.2,6.053-10.07.811-5.049.082-9.57-1.635-11.185-2.43-.224-5.109,4.2-6.053,10.07-.811,5.048-.082,9.569,1.634,11.184" transform="translate(-835.8 -597.379)"/><path class="g" d="M1101.148,712.042s9.3,5.078,10.185,7.6,2.028,15.068,1.6,15.823-1.786.141-2.125.1-.345-10.26-1.451-13.931-9.106-7.7-9.106-7.7Z" transform="translate(-839.064 -610.195)"/><path class="h" d="M1168.062,746.593c.107.017.214.033.321.052A38.327,38.327,0,0,1,1170,779.5a38.852,38.852,0,0,1-1.737,3.636c15-2.474,12.011-34.666-.2-36.54" transform="translate(-876.62 -629.33)"/><path class="i" d="M624.133,1099.436a21.538,21.538,0,1,0,21.538,21.538,21.541,21.541,0,0,0-21.538-21.538m0-21.768a43.306,43.306,0,1,0,43.305,43.306A43.311,43.311,0,0,0,624.133,1077.668Z" transform="translate(-551.4 -812.684)"/><path class="j" d="M661.627,1129.33l-8.732,2.838a12.631,12.631,0,0,0-6.6-4.764v-9.167a21.563,21.563,0,0,1,15.334,11.093m-3.526,25.1-5.391-7.421a12.542,12.542,0,0,0,2.51-7.548l0-.319,8.71-2.83a21.749,21.749,0,0,1,.23,3.149A21.463,21.463,0,0,1,658.1,1154.429Zm-25.032,4.34,5.385-7.412a12.645,12.645,0,0,0,8.33,0l5.385,7.411a21.562,21.562,0,0,1-19.1,0Zm-11.76-22.455,8.711,2.83,0,.317a12.542,12.542,0,0,0,2.511,7.549l-5.391,7.42a21.464,21.464,0,0,1-6.056-14.969A21.7,21.7,0,0,1,621.31,1136.314Zm17.632-18.077v9.167a12.634,12.634,0,0,0-6.6,4.764l-8.731-2.837A21.566,21.566,0,0,1,638.942,1118.237Zm3.677-7.188a28.412,28.412,0,1,0,28.412,28.412A28.416,28.416,0,0,0,642.619,1111.049Z" transform="translate(-569.886 -831.171)"/><path class="i" d="M1237.184,1099.436a21.538,21.538,0,1,0,21.538,21.538,21.541,21.541,0,0,0-21.538-21.538m0-21.768a43.306,43.306,0,1,0,43.306,43.306A43.311,43.311,0,0,0,1237.184,1077.668Z" transform="translate(-890.917 -812.684)"/><path class="j" d="M1274.679,1129.33l-8.731,2.838a12.635,12.635,0,0,0-6.6-4.764v-9.167a21.563,21.563,0,0,1,15.334,11.093m-3.526,25.1-5.391-7.421a12.547,12.547,0,0,0,2.509-7.548l0-.319,8.71-2.83a21.706,21.706,0,0,1,.23,3.149A21.463,21.463,0,0,1,1271.153,1154.429Zm-25.032,4.34,5.385-7.412a12.644,12.644,0,0,0,8.33,0l5.385,7.411a21.562,21.562,0,0,1-19.1,0Zm-11.76-22.455,8.711,2.83,0,.317a12.542,12.542,0,0,0,2.511,7.549l-5.391,7.42a21.466,21.466,0,0,1-6.056-14.969A21.705,21.705,0,0,1,1234.361,1136.314Zm17.633-18.077v9.167a12.63,12.63,0,0,0-6.6,4.764l-8.731-2.837A21.565,21.565,0,0,1,1251.994,1118.237Zm3.676-7.188a28.412,28.412,0,1,0,28.412,28.412A28.415,28.415,0,0,0,1255.67,1111.049Z" transform="translate(-909.404 -831.171)"/><path class="h" d="M614.617,996.915H595.849s-6.63,12.812-5.25,16.143,7.612,3.019,7.612,3.019Z" transform="translate(-556.708 -767.962)"/><path class="j" d="M628.312,989.936H604.633s-10.639,16.207-10.707,22.588,6.757,6.775,6.757,6.775Z" transform="translate(-558.655 -764.097)"/><path class="k" d="M918.076,617.59l-7.545,12.921c.133-.03,14.114,11.171,15.195,11.429l6.776-15.948Z" transform="translate(-733.995 -557.886)"/><path class="k" d="M971.853,556.452c1.288,29.668-6.692,46.107-42.791,31.254l2.8-23.822,12.307-10.13Z" transform="translate(-744.258 -522.532)"/><path class="i" d="M972.906,526.974c-11.227,9.721-39.236-19.637-48.277-4.44,0,0-9.558,2.544-13.053,11.353s4.49,33.7,4.49,33.7l10.248-9.816c-7.625-7.654,3.25-14.152,6.119-4.928l5.262-11.5c11.323,4.439,35.472,5.39,35.211-14.365" transform="translate(-734.084 -502.775)"/><path class="l" d="M953.2,622.977c1.525,4.55,3.379,8.721,9.451,9.417a4.69,4.69,0,0,1-2.887,1.078,9.942,9.942,0,0,1-9.182-7.823Z" transform="translate(-756.177 -560.869)"/><path class="m" d="M950.794,509.749c-23.161.242-30.779,11.535-30.2,31.816.218,7.692-2.382,7.969-9.339,7.393-23.97-1.984-37.894-43.515-9.311-60.175,24.149-14.075,53,4.316,48.852,20.967" transform="translate(-720.391 -483.779)"/><path class="l" d="M931.787,573.071A6.937,6.937,0,1,1,924.838,580a6.938,6.938,0,0,1,6.949-6.925" transform="translate(-741.919 -533.23)"/><path class="d" d="M1000.283,745.359a72.828,72.828,0,0,0-16.365.459c-8.183,1.287-42.608-8.577-46.015-9.588s-11.909-22-11.909-22l-14.417,8.081s13.391,21.224,18.921,24.542,44.112,7.712,48.72,8.08,20.588-2.142,20.588-2.142Z" transform="translate(-734.575 -611.405)"/><path class="n" d="M1089.73,816.185s-12.348-22.486-13.085-29.3,21.2-13.454,21.2-13.454l14.745,31.7-12.9,13.27Z" transform="translate(-825.981 -644.19)"/><path class="i" d="M577.229,1071.3s-5.895,8.458-15.479,22.65-12.164,20.457-12.164,20.457,4.976,3.134,15.113-7.187,33.728-24.882,33.728-24.882Z" transform="translate(-534.099 -809.156)"/><path class="n" d="M1195.787,1034.711c19.556-1.8,51.495,12.5,60.821,34.65-48.878-7.144-52.917,2.518-80.911,21.564-9.222,6.274-19.72,2.765-19.72,2.765Z" transform="translate(-869.927 -788.809)"/><path class="o" d="M1195.787,1034.712a54.429,54.429,0,0,1,19.857,2.462c-4.344,2.67-8.534,6.6-10.5,12.283-2.269,6.554-3.12,15.751-3.375,23.82-7.773,4.135-15.074,10.168-26.07,17.649-9.222,6.274-19.72,2.765-19.72,2.765Z" transform="translate(-869.927 -788.81)"/><path class="i" d="M835.343,844.474l-22.855,11.059s-2.027,3.686,1.475,12.532,11.98,24.144,14.376,42.575,2.4,62.48-18.984,63.217-50.684.738-50.684.738S752.5,974.153,748,971.67a14.507,14.507,0,0,1-6.1-6.107l-76.856-20.642-89.02.921.369,9.4s29.3,7.372,54.371,12.349,32.807,6.266,32.807,6.266l2.188,8.166s51.445,13.4,100.655,15.242,64.323-3.686,64.323-3.686,23.407-16.035,30.78-42.575,13.822-35.2,2.212-58.056-28.383-48.473-28.383-48.473" transform="translate(-548.74 -683.538)"/><path class="k" d="M992.17,1110.038l-1.43,10.835,14.655,1.611,1.755-9.7Z" transform="translate(-778.416 -830.611)"/><path class="e" d="M986.129,1126.588c-4.963,1.3-5.719,13.462-2.937,17.15.016.02.04.041.058.061h50.564c1.083-2.348.03-9.028-5.044-12.138-4.278-2.621-17.175-3.937-27.475-4.584l-.2.343a16.853,16.853,0,0,1-9.059,1.493c-4.885-.633-5.875-2.272-5.9-2.325" transform="translate(-773.349 -839.777)"/><path class="p" d="M1068.565,1147.613h13c1.083-2.348,1.986-8.505-3.088-11.615a37.7,37.7,0,0,0-7.734-2.525,16.141,16.141,0,0,0-2.178,14.141" transform="translate(-821.101 -843.589)"/><path class="m" d="M987.208,844.474s-4.424,6.267.368,16.957,31.029,49.053,24.39,69.707-18.492,55.99-40.608,62.994-120.905-5.53-120.905-5.53-4.054,19.168,23.223,19.537,95.1,5.9,114.639-8.109,51.974-69.668,50.869-81.464-51.974-74.092-51.974-74.092" transform="translate(-700.605 -683.538)"/><path class="m" d="M751.3,984.919H608.645c-6.59,1.556-29.171,23.835-32.622,38.7,30.1,7.563,126.167,21.907,165.876,19.721-21.992-25.8,9.738-41.3,9.4-58.425" transform="translate(-548.74 -761.318)"/><path class="o" d="M722.948,1044.875q4.476.28,8.681.463a41.624,41.624,0,0,0,2.8-14.675c0-30.05-36.436-48.031-81.366-40.152-21.805,3.824-41.608,13.037-56.218,24.943a121.428,121.428,0,0,1,49.427-20.413c43.275-7.588,78.369,9.73,78.369,38.674a38.944,38.944,0,0,1-1.692,11.162" transform="translate(-560.271 -763.389)"/><path class="o" d="M581.582,962.138a22.606,22.606,0,0,0,16.217,6.871h82.445v-6.871Z" transform="translate(-551.818 -748.702)"/><rect class="q" width="142.653" height="5.342" transform="translate(59.906 218.259)"/><rect class="r" width="142.653" height="1.474" transform="translate(59.906 222.126)"/><path class="i" d="M883.245,942.043H814.272V923.979c0-3.751,3.077-7.069,6.819-6.82l49.712,3.318c6.828.455,12.442,5.6,12.442,12.442Z" transform="translate(-680.686 -723.784)"/><path class="e" d="M828.905,917.15c.1,0,.193,0,.29.011l49.712,3.318c6.828.455,12.442,5.6,12.442,12.442v1.43a59.918,59.918,0,0,1-62.443-17.2" transform="translate(-688.79 -723.787)"/><path class="e" d="M814.784,1166.623a10.629,10.629,0,0,0,0,21.24v.008l49.64,1.981c.337.027.678.042,1.022.042a12.651,12.651,0,1,0,0-25.3h0q-.515,0-1.018.04l-49.643,1.99Z" transform="translate(-675.322 -860.824)"/><path class="s" d="M839.239,845.714s-3.316,27.143,6.912,35.136,68.53,5.914,73.8,5.092c0,0-4.369,11.812-7.777,34.591s-5.84,43.5-5.84,43.5c3.16,3.181,13.591,5.123,18.587,3.436,0,0,22.6-77.9,22.114-89.614s-6.977-15.922-20.615-17.949-59.371-9.062-59.371-9.062Z" transform="translate(-694.229 -684.224)"/><path class="t" d="M1164.857,742.588a20.584,20.584,0,0,0-4.818-1.18c.12.015.239.029.358.046a42.583,42.583,0,0,1,3,36.421,43.21,43.21,0,0,1-1.8,4.1,20.648,20.648,0,0,0,5.9-2.151c.045-.117.092-.232.136-.35a47.056,47.056,0,0,0-1.216-36.222c-.509-.24-1.031-.464-1.567-.666" transform="translate(-872.177 -626.458)"/><path class="m" d="M1131.865,741.274a20.552,20.552,0,1,0,1.2,40.522,43.171,43.171,0,0,0,1.8-4.1,42.583,42.583,0,0,0-3-36.421" transform="translate(-843.645 -626.278)"/><path class="n" d="M1108.992,777.384a20.553,20.553,0,0,0,24.077,24.517,43.172,43.172,0,0,0,1.8-4.1,42.6,42.6,0,0,0,2.689-12.728,70.532,70.532,0,0,1-17.375-2.793,52.674,52.674,0,0,1-11.186-4.894" transform="translate(-843.646 -646.382)"/><path class="u" d="M1082.294,807.505a4.509,4.509,0,0,0-1.627.3h0a4.53,4.53,0,0,0-.518.24l-12.621,6.411,3.776,8.206,12.887-6.545h0a4.516,4.516,0,0,0-1.9-8.615" transform="translate(-820.942 -663.064)"/><path class="m" d="M857.031,633.206c-5.406,5.348-15.309,17-18.471,33.082-4.43,22.529-16,70.656-16,70.656a135.713,135.713,0,0,0,31.88,3.494c18.706-.019,23.765-8.423,23.765-8.423s3.864-41.093,5.734-60.17-6.252-26.909-6.252-26.909L863.556,632.5c-3.535-3.111-2.883-2.894-6.525.709" transform="translate(-685.278 -564.937)"/><path class="n" d="M899.291,630.949l-3.834,2.755c7.007,5.886,22.428,14.743,30.111,24.155,0,0,2.19-8.213-3.753-13.706-4.458-4.121-13.932-10.182-18.39-12.956-2.385-1.483-1.985-1.793-4.134-.248" transform="translate(-725.647 -564.719)"/><path class="k" d="M923.391,746.333c1.081.833,42.052,16.778,48.663,16.706,5.7-.062,6.629-.889,9.621-.383s6.089.575,10.475,3.451,2.973,6.912,2.474,7.054-.477-1.844-1.767-3.547-6.086-2.7-6.086-2.7,3.669,1.084,4.739,3.26.21,6.718-.61,6.626-.257-2.874-.908-4.237-4.625-3.938-4.625-3.938,3.078,2.655,3.365,5.071-1.381,5.428-1.959,4.727.378-4.159-.213-5.6-3.2-2.212-3.2-2.212a5.014,5.014,0,0,1,2.5,2.789,8.667,8.667,0,0,1-.682,5.407c-.619.916-.484-2.077-1.6-4.262s-4.74-2.7-4.74-2.7a5.45,5.45,0,0,0-4.3,1.547c-1.561,1.824-4.141,1.991-6.521-.128s-6.934-3.725-9.979-4.379-37.624-5.824-42.319-8.39-15.328-25.381-15.328-25.381l15.929-5.6Z" transform="translate(-728.38 -619.868)"/><path class="u" d="M1066.971,821.832a4.515,4.515,0,1,0,4.516,4.515,4.516,4.516,0,0,0-4.516-4.515" transform="translate(-818.134 -670.998)"/><path class="n" d="M898.989,670.51c-20.5-1.653-8.739,38.653-7.188,42.759l23.407-6.635c-.775-9.3-4.8-35.2-16.219-36.124" transform="translate(-720.987 -587.166)"/><path class="o" d="M648.637,1015.059c30.892-13.961,82.132-15.5,92.706,11.611-17.643-23.828-77.47-15.051-92.706-11.611" transform="translate(-588.954 -772.565)"/><path class="v" d="M1317.854,1069.571c-13.052-12.123-23.907-17.8-36.867-22.066,17.282,2.336,30.544,13.016,36.867,22.066" transform="translate(-939.16 -795.979)"/><path class="h" d="M1228.5,964.729h0a4.344,4.344,0,0,0-1.632,5.9l6.635,11.7a4.343,4.343,0,0,0,5.9,1.632h0a4.343,4.343,0,0,0,1.632-5.9l-6.635-11.705a4.343,4.343,0,0,0-5.9-1.632" transform="translate(-908.88 -749.826)"/><path class="f" d="M1066.03,724.663c-3.613,0-7.019,4.994-7.606,11.151s1.866,11.15,5.479,11.15,7.019-4.993,7.606-11.15-1.867-11.151-5.48-11.151" transform="translate(-815.853 -617.184)"/><path class="g" d="M1066.574,747.424c3.509-.244,6.761-5.139,7.333-11.14.492-5.159-1.151-9.5-3.822-10.773-3.51.243-6.761,5.138-7.333,11.14-.493,5.158,1.151,9.5,3.821,10.773" transform="translate(-818.25 -617.654)"/><path class="g" d="M1072.4,749.654s9.9,3.8,11.1,6.181,4.007,14.666,3.683,15.471-1.752.377-2.094.378-1.7-10.124-3.284-13.616-10.046-6.425-10.046-6.425Z" transform="translate(-823.286 -631.025)"/><rect class="w" width="129.855" height="133.149" rx="18.441" transform="translate(0 80.165)"/><path class="w" d="M558.214,661.369v134.2h20.178v-134.2Z" transform="translate(-538.877 -582.131)"/><path class="x" d="M718.95,661.369v134.2h20.179v-134.2Z" transform="translate(-627.895 -582.131)"/><path class="x" d="M558.214,661.369v134.2h20.178v-134.2Z" transform="translate(-538.877 -582.131)"/><path d="M980.452,598.028s10.911,4.028,16.429,2.74c0,0-.494,15.143-11.684,17.015a35.293,35.293,0,0,1-8.9,0S987.57,609.106,980.452,598.028Z" transform="translate(-770.419 -547.052)"/><path class="i" d="M973.69,594.7s-5.284-1.715-9.918-2.893c0,0-.443.7-.2,1a104.737,104.737,0,0,1,10.566,3Z" transform="translate(-763.331 -543.607)"/><path class="i" d="M965.9,629.122a34.291,34.291,0,0,1-8.457-9.695l.334-.865s4.6,6.674,9.38,10.121Z" transform="translate(-759.973 -558.424)"/><path class="n" d="M971.518,538.66c-23.161.242-30.779,11.535-30.2,31.816.219,7.692-2.381,7.969-9.339,7.393a22.337,22.337,0,0,1-8.59-2.546c5.275.8,11.174,1.119,13.443-.885,4.485-3.962-.918-19.334,9.97-30.925,7.35-7.824,18.57-7.977,25.088-7.25a13.436,13.436,0,0,1-.371,2.4" transform="translate(-741.115 -512.69)"/></g></g></svg>